<?xml version="1.0" encoding="UTF-8"?>
<svg version="1.1" xmlns="http://www.w3.org/2000/svg" width="640" height="390">
<path d="M0 0 C-0.875 2.46484375 -0.875 2.46484375 -2 5 C-3.32303717 5.3721042 -4.65737935 5.70630173 -6 6 C-6.2990625 6.60199219 -6.598125 7.20398438 -6.90625 7.82421875 C-8.13022368 10.2590521 -9.42287288 11.50732555 -11.5 13.25 C-12.1084375 13.77078125 -12.716875 14.2915625 -13.34375 14.828125 C-15 16 -15 16 -17 16 C-17.33 16.99 -17.66 17.98 -18 19 C-19.98600337 20.3540932 -21.98817543 21.68457624 -24 23 C-25.67100504 24.66231697 -27.33688572 26.3297885 -29 28 C-31.36230376 30.12249733 -33.77471801 32.1852272 -36.1875 34.25 C-40.58772266 38.03534438 -44.9602984 41.839004 -49.25 45.75 C-53.3901857 49.50204329 -57.67617016 53.03654191 -62.015625 56.5546875 C-69.79696396 62.93049664 -77.41035755 69.50045841 -84.8125 76.3125 C-91.63049786 82.50794136 -91.63049786 82.50794136 -94.875 85.25 C-95.55304688 85.83265625 -96.23109375 86.4153125 -96.9296875 87.015625 C-99 88 -99 88 -101.45703125 87.43359375 C-104.29505683 85.83366228 -106.43720744 84.04197492 -108.8125 81.8125 C-109.67875 81.01714844 -110.545 80.22179687 -111.4375 79.40234375 C-113.05406437 77.88681466 -114.65984863 76.35962607 -116.25 74.81640625 C-116.930625 74.17574219 -117.61125 73.53507812 -118.3125 72.875 C-118.90675781 72.29492188 -119.50101563 71.71484375 -120.11328125 71.1171875 C-121.96759829 69.7924279 -121.96759829 69.7924279 -124.3203125 70.06640625 C-128.37059037 71.47750889 -131.73373277 73.83983848 -135.27148438 76.20507812 C-138.58500954 78.34821194 -139.92000472 79 -144 79 C-144.24161865 78.45545166 -144.4832373 77.91090332 -144.73217773 77.34985352 C-146.49270793 73.38495129 -148.25761193 69.42215044 -150.03515625 65.46484375 C-151.04882812 63.20117188 -151.04882812 63.20117188 -152.0625 60.9375 C-152.57006836 59.81118164 -152.57006836 59.81118164 -153.08789062 58.66210938 C-155.24645464 53.83143517 -157.17913574 48.96790712 -159 44 C-162.21082592 35.70007845 -168.10708288 30.46306127 -175.3125 25.36328125 C-175.869375 24.91339844 -176.42625 24.46351563 -177 24 C-177 23.34 -177 22.68 -177 22 C-178.32 21.67 -179.64 21.34 -181 21 C-181 19.68 -181 18.36 -181 17 C-170.17010823 15.63811394 -159.33868348 14.29027888 -148.5 13 C-147.76598969 12.91251495 -147.03197937 12.82502991 -146.27572632 12.7348938 C-136.00520843 11.51730299 -125.74296493 10.49538238 -115.42822266 9.72094727 C-108.70269906 9.1974139 -102.05404874 8.37743515 -95.375 7.4375 C-86.84525837 6.23993333 -78.40661419 5.57502309 -69.79443359 5.37866211 C-63.95892124 5.21647036 -58.37794583 4.47153513 -52.61914062 3.5324707 C-46.38325352 2.61500782 -40.11380927 2.09532203 -33.8347168 1.56738281 C-31.56811146 1.37547511 -29.30267664 1.17250656 -27.03710938 0.96875 C-17.99377013 0.18096288 -9.08423026 -0.17959836 0 0 Z " fill="#CBA1F1" transform="translate(241,149)"/>
<path d="M0 0 C10.43851711 8.04939107 20.74406232 17.19902666 27 29 C27 29.99 27 30.98 27 32 C22.80230959 33.26736552 19.33793069 33.80682523 15 33 C10.39251153 29.65530467 7.05453594 24.73212556 4 20 C4 19.34 4 18.68 4 18 C3.401875 17.731875 2.80375 17.46375 2.1875 17.1875 C0.01273336 16.00691239 -1.26816512 14.73183488 -3 13 C-3.99 12.67 -4.98 12.34 -6 12 C-6 11.34 -6 10.68 -6 10 C-6.68449219 9.74089844 -7.36898437 9.48179688 -8.07421875 9.21484375 C-12.62506067 7.32524183 -16.95139801 5.00499747 -21.33203125 2.75390625 C-27.922983 -0.47885372 -34.12099591 -2.50534247 -41.4375 -3.25 C-42.59668945 -3.3722998 -42.59668945 -3.3722998 -43.77929688 -3.49707031 C-64.84262404 -5.43913988 -84.58653844 -1.34338358 -102 11 C-102.804375 11.56847656 -103.60875 12.13695313 -104.4375 12.72265625 C-112.69297891 18.8445401 -118.6457416 26.28509006 -124 35 C-124.5053125 35.80953125 -125.010625 36.6190625 -125.53125 37.453125 C-133.9701208 51.83364974 -135.73632512 65.22191653 -135.3125 81.5 C-135.28733492 83.20960206 -135.26453652 84.91924064 -135.24414062 86.62890625 C-135.18991086 90.75353322 -135.10411657 94.87634329 -135 99 C-134.34 99 -133.68 99 -133 99 C-133 98.34 -133 97.68 -133 97 C-132.34 97 -131.68 97 -131 97 C-130.60167969 96.1028125 -130.60167969 96.1028125 -130.1953125 95.1875 C-126.93612497 89.2229738 -120.22132248 85.32084491 -114 83 C-111.63405515 82.46676622 -109.4257204 82.20214337 -107 82 C-106.67 83.32 -106.34 84.64 -106 86 C-106.8971875 86.37125 -106.8971875 86.37125 -107.8125 86.75 C-110.28777159 88.16444091 -111.33430804 89.72860188 -113 92 C-113.66 92 -114.32 92 -115 92 C-115.39058594 92.83337891 -115.39058594 92.83337891 -115.7890625 93.68359375 C-117 96 -117 96 -118.5859375 98.34765625 C-123.81902546 106.28869584 -125.6160198 113.80332538 -127.2734375 123.0703125 C-128 127 -128 127 -129 129 C-129.66 129 -130.32 129 -131 129 C-131 128.34 -131 127.68 -131 127 C-131.66 127 -132.32 127 -133 127 C-147.58327005 106.81645357 -150.36277831 82.49395401 -146.9375 58.375 C-144.75943833 44.89798546 -138.87183083 33.07691631 -131 22 C-130.43410156 21.19949219 -129.86820313 20.39898437 -129.28515625 19.57421875 C-125.38905286 14.31757132 -121.08582535 10.09532753 -116 6 C-115.31164062 5.42507812 -114.62328125 4.85015625 -113.9140625 4.2578125 C-80.73711648 -22.69097037 -34.97968795 -24.58281901 0 0 Z " fill="#5953B6" transform="translate(186,113)"/>
<path d="M0 0 C-0.99 0.33 -1.98 0.66 -3 1 C-3 1.66 -3 2.32 -3 3 C-3.76183594 3.18175781 -4.52367187 3.36351562 -5.30859375 3.55078125 C-16.63473731 6.30808212 -27.20354099 9.46902732 -37 16 C-31.1353895 14.33619702 -25.59475472 12.44134751 -20 10 C-16.15048456 8.59896318 -12.34469073 7.25017502 -8.3125 6.5 C-5.79871078 6.06301188 -5.79871078 6.06301188 -3 4.4375 C0.02360695 2.98868834 1.71109809 2.70980277 5 3 C3.74397824 6.76806529 2.48987433 7.21246507 -0.875 9.1875 C-1.75929688 9.71730469 -2.64359375 10.24710938 -3.5546875 10.79296875 C-6 12 -6 12 -9 12 C-9 12.66 -9 13.32 -9 14 C-10.73636719 14.90492188 -10.73636719 14.90492188 -12.5078125 15.828125 C-14.04696644 16.63524231 -15.58602384 17.44254376 -17.125 18.25 C-17.88554687 18.64574219 -18.64609375 19.04148438 -19.4296875 19.44921875 C-23.8079204 21.75156536 -27.91916744 24.20721783 -32 27 C-37.57142857 30 -37.57142857 30 -40 30 C-40 30.66 -40 31.32 -40 32 C-41.0725 32.45375 -42.145 32.9075 -43.25 33.375 C-45.88062317 34.50088537 -48.46000396 35.67920206 -51 37 C-51 37.66 -51 38.32 -51 39 C-51.928125 39.433125 -52.85625 39.86625 -53.8125 40.3125 C-56.91542753 41.74249913 -56.91542753 41.74249913 -58.5625 43.625 C-60.5383116 45.51490675 -62.34051458 45.54594151 -65 46 C-67.81653712 47.30395237 -70.51404673 48.80002003 -73.1875 50.375 C-73.88230469 50.77460938 -74.57710937 51.17421875 -75.29296875 51.5859375 C-77.34341442 53.28447602 -77.63067826 54.40923555 -78 57 C-78.66 57 -79.32 57 -80 57 C-80.33 57.99 -80.66 58.98 -81 60 C-81.37125 59.5875 -81.7425 59.175 -82.125 58.75 C-84.0087107 56.88386434 -84.0087107 56.88386434 -86.5625 55.375 C-90.67906199 52.72716113 -94.14731384 49.33689258 -97.73046875 46.0234375 C-100.02688897 43.88119749 -100.02688897 43.88119749 -103 42 C-103 41.34 -103 40.68 -103 40 C-103.5465625 39.75894531 -104.093125 39.51789063 -104.65625 39.26953125 C-107.5574783 37.69803259 -109.94552604 35.77529122 -112.5 33.6875 C-113.4384375 32.92824219 -114.376875 32.16898438 -115.34375 31.38671875 C-117.8957206 29.09369811 -119.94458765 26.73893391 -122 24 C-118.79128505 20.79128505 -114.56816366 20.27878465 -110.1875 19.5 C-107.80489526 19.15940735 -107.80489526 19.15940735 -106 17 C-103.6171875 17.0234375 -103.6171875 17.0234375 -100.875 17.375 C-99.96492188 17.48585937 -99.05484375 17.59671875 -98.1171875 17.7109375 C-97.41851562 17.80632812 -96.71984375 17.90171875 -96 18 C-95.67 17.34 -95.34 16.68 -95 16 C-88.04709704 13.83741868 -80.45551905 13.38371088 -73.25 12.5625 C-64.34523817 11.50314158 -55.72491401 10.08995054 -47 8 C-45.333776 7.66446092 -43.66703256 7.33149861 -42 7 C-40.50999127 6.67774189 -39.02045745 6.35328465 -37.53125 6.02734375 C-36.71269531 5.85009766 -35.89414063 5.67285156 -35.05078125 5.49023438 C-33.34944783 5.12156871 -31.64891961 4.74916751 -29.94921875 4.37304688 C-25.86074338 3.49418563 -22.19464537 2.93808642 -18 3 C-15.66443537 2.00522247 -13.33124929 1.00484883 -11 0 C-7.03724613 -0.80598384 -3.85746526 -1.38868749 0 0 Z " fill="#E5C7F9" transform="translate(203,160)"/>
<path d="M0 0 C0.99 0.33 1.98 0.66 3 1 C3.07526343 5.05264618 3.12911541 9.1050108 3.16479492 13.15820312 C3.17969923 14.53132226 3.20002997 15.90439539 3.22631836 17.27734375 C3.69382266 42.3575744 -6.57705024 63.65526434 -23.14453125 82.15625 C-26.48044199 85.47109183 -30.2312693 88.20341538 -34 91 C-34.76441406 91.64582031 -35.52882813 92.29164063 -36.31640625 92.95703125 C-39.46730377 95.35574945 -42.78135852 97.17797722 -46.3125 98.9375 C-47.35059814 99.45582397 -47.35059814 99.45582397 -48.40966797 99.98461914 C-68.44375791 109.67175467 -91.21616087 112.43851579 -112.7265625 106.140625 C-118.61291021 104.08953487 -123.46751462 102.39685266 -127 97 C-131.88369463 86.26793033 -131.21032282 74.35636354 -127.15625 63.51171875 C-125.81755534 60.60367597 -124.26739941 58.26739941 -122 56 C-121.01 56.33 -120.02 56.66 -119 57 C-119.33 58.155 -119.66 59.31 -120 60.5 C-122.16553279 70.53732352 -122.57444388 82.26312992 -118.05859375 91.69140625 C-113.68556599 96.5955038 -107.17762536 96.59631359 -101 97 C-99.96617188 97.08507812 -98.93234375 97.17015625 -97.8671875 97.2578125 C-75.28643404 98.14217621 -54.08085052 91.9827303 -37 77 C-35.31989806 75.3468778 -33.65133235 73.68186118 -32 72 C-31.21625 71.278125 -30.4325 70.55625 -29.625 69.8125 C-15.31793239 54.48349898 -8.60351578 34.4101661 -8.27612305 13.69873047 C-8.20926609 9.92454732 -8.15077546 8.22616318 -6 5 C-5.01 4.67 -4.02 4.34 -3 4 C-1.31461399 2.00334686 -1.31461399 2.00334686 0 0 Z " fill="#5751B2" transform="translate(222,175)"/>
<path d="M0 0 C6.83583636 1.39542011 6.83583636 1.39542011 13 -1 C16 -1 16 -1 18 0 C17.67 0.99 17.34 1.98 17 3 C19.31 3.33 21.62 3.66 24 4 C20.9017564 7.0982436 18.08546172 7.3484157 13.83984375 7.6875 C7.83207642 8.34860232 1.91231078 9.76938328 -4 11 C-4.78503906 11.15597656 -5.57007813 11.31195313 -6.37890625 11.47265625 C-8.66676048 11.93295479 -10.94828292 12.41495835 -13.23046875 12.90234375 C-22.42854404 14.83750384 -31.52711304 16.42027793 -40.88232422 17.34912109 C-46.35369193 17.89736668 -51.6440192 18.78133515 -57 20 C-59.84980586 20.62704378 -62.06784156 20.99717327 -65 20.875 C-68.53945747 21.02247739 -70.05792888 22.11405697 -73 24 C-74.65821773 24.37309899 -76.32577014 24.70700977 -78 25 C-79.6792238 25.63437344 -81.35008418 26.29289322 -83 27 C-82.34 28.32 -81.68 29.64 -81 31 C-81.99 31.495 -81.99 31.495 -83 32 C-83 31.34 -83 30.68 -83 30 C-83.556875 29.76152344 -84.11375 29.52304688 -84.6875 29.27734375 C-87.52296753 27.71113111 -89.62722978 25.76526991 -92 23.5625 C-95.52881363 20.29566918 -95.52881363 20.29566918 -99.3125 17.33984375 C-99.869375 16.89769531 -100.42625 16.45554688 -101 16 C-101 15.34 -101 14.68 -101 14 C-102.32 13.67 -103.64 13.34 -105 13 C-105 11.68 -105 10.36 -105 9 C-94.17010728 7.63811383 -83.33867243 6.29037724 -72.5 5 C-71.40347107 4.86927094 -71.40347107 4.86927094 -70.28479004 4.73590088 C-59.80663092 3.49332238 -49.33378016 2.4482403 -38.81079102 1.65283203 C-33.63609632 1.25362966 -28.56218039 0.69586093 -23.4375 -0.125 C-5.7697985 -2.88489925 -5.7697985 -2.88489925 0 0 Z " fill="#D8A5EF" transform="translate(165,157)"/>
<path d="M0 0 C3.96 0 7.92 0 12 0 C15.25 3.5 15.25 3.5 17 7 C17.29390625 6.4946875 17.5878125 5.989375 17.890625 5.46875 C19.45391781 3.20467076 20.77183187 1.63535276 23 0 C27.06586917 -0.66979569 30.92233242 -0.55806337 35 0 C36.62754644 1.62754644 36.12737077 3.44138323 36.12939453 5.6875 C36.13254669 6.68523437 36.13569885 7.68296875 36.13894653 8.7109375 C36.1369223 9.79632813 36.13489807 10.88171875 36.1328125 12 C36.13376923 13.10601562 36.13472595 14.21203125 36.13571167 15.3515625 C36.13639367 17.69531308 36.13453804 20.03906553 36.13037109 22.3828125 C36.12502314 25.98441788 36.13031547 29.58589853 36.13671875 33.1875 C36.13605797 35.45833361 36.13477682 37.72916714 36.1328125 40 C36.13483673 41.08539063 36.13686096 42.17078125 36.13894653 43.2890625 C36.13421829 44.78566406 36.13421829 44.78566406 36.12939453 46.3125 C36.12859894 47.19550781 36.12780334 48.07851562 36.12698364 48.98828125 C36 51 36 51 35 52 C33.16884117 52.09851171 31.33380067 52.12972629 29.5 52.125 C28.4996875 52.12757813 27.499375 52.13015625 26.46875 52.1328125 C24 52 24 52 23 51 C22.84126045 48.78312006 22.74866163 46.56144702 22.68359375 44.33984375 C22.66281265 43.67537735 22.64203156 43.01091095 22.62062073 42.3263092 C22.55506342 40.19681457 22.49621215 38.06719332 22.4375 35.9375 C22.39432061 34.49673153 22.35070651 33.05597601 22.30664062 31.61523438 C22.19937607 28.0769596 22.09812629 24.53854131 22 21 C21.01 22.65 20.02 24.3 19 26 C17.125 25.6875 17.125 25.6875 15 25 C14.34 24.01 13.68 23.02 13 22 C12.97494385 22.87325928 12.9498877 23.74651855 12.92407227 24.64624023 C12.82912291 27.87602552 12.72987971 31.10564154 12.62768555 34.33520508 C12.58428566 35.73489199 12.54261436 37.13463359 12.50268555 38.53442383 C12.44510555 40.54261495 12.38086 42.55061149 12.31640625 44.55859375 C12.27974854 45.76829834 12.24309082 46.97800293 12.20532227 48.22436523 C12 51 12 51 11 52 C7.37 52 3.74 52 0 52 C0 34.84 0 17.68 0 0 Z " fill="#F5F5F8" transform="translate(484,185)"/>
<path d="M0 0 C3.3956697 -0.08745946 6.79104773 -0.14054444 10.1875 -0.1875 C11.14720703 -0.21263672 12.10691406 -0.23777344 13.09570312 -0.26367188 C19.72030572 -0.33243938 23.15488452 0.48004058 28.1875 4.9375 C31.3174008 8.49911125 32.27888301 11.26318659 32.25 16 C32.25773437 17.2684375 32.25773437 17.2684375 32.265625 18.5625 C31.98343321 21.15202469 31.17666848 22.70859296 30 25 C30.32768302 28.2112936 30.97948256 30.93844769 32 34 C32.09636449 36.88526611 32.13927947 39.74054778 32.125 42.625 C32.13080078 43.80835938 32.13080078 43.80835938 32.13671875 45.015625 C32.12665394 50.87334606 32.12665394 50.87334606 31 52 C26.99779347 52.14355117 23.00558317 52.04216403 19 52 C19 45.73 19 39.46 19 33 C16.69 32.34 14.38 31.68 12 31 C12 37.93 12 44.86 12 52 C8.04 52 4.08 52 0 52 C-0.9892063 49.0323811 -1.09308174 47.24542185 -1.02172852 44.16137695 C-1.00163223 43.1805867 -0.98153595 42.19979645 -0.96083069 41.18928528 C-0.93379562 40.13295395 -0.90676056 39.07662262 -0.87890625 37.98828125 C-0.85529526 36.90491989 -0.83168427 35.82155853 -0.80735779 34.70536804 C-0.73070914 31.2409458 -0.64668961 27.7767464 -0.5625 24.3125 C-0.50928054 21.96550574 -0.45654014 19.61850057 -0.40429688 17.27148438 C-0.27509233 11.51418466 -0.13983367 5.75705082 0 0 Z M12 11 C12 13.97 12 16.94 12 20 C14.31 20 16.62 20 19 20 C20.1508314 15.92920792 20.1508314 15.92920792 18.875 12.125 C16.46277487 10.67766492 14.7648665 10.77582164 12 11 Z " fill="#F5F5F8" transform="translate(286,185)"/>
<path d="M0 0 C1.97909398 -0.02686553 3.95828971 -0.04633375 5.9375 -0.0625 C7.03964844 -0.07410156 8.14179688 -0.08570313 9.27734375 -0.09765625 C12 0 12 0 13 1 C13.08868299 3.95705321 13.11520296 6.89065056 13.09765625 9.84765625 C13.0962413 10.7340831 13.09482635 11.62050995 13.09336853 12.53379822 C13.08775215 15.37673254 13.07519691 18.21958931 13.0625 21.0625 C13.05748711 22.98502491 13.05292384 24.90755104 13.04882812 26.83007812 C13.03777741 31.55341549 13.02050183 36.27669458 13 41 C15.47266765 40.65555119 15.47266765 40.65555119 18 40 C19.63657754 36.72684491 19.2430807 33.09377769 19.31640625 29.4921875 C19.33718735 28.65156769 19.35796844 27.81094788 19.37937927 26.94485474 C19.44485439 24.25498765 19.5037502 21.56502157 19.5625 18.875 C19.60568716 17.05337511 19.64930152 15.23176029 19.69335938 13.41015625 C19.80053368 8.94020606 19.90180685 4.47015614 20 0 C23.63 0 27.26 0 31 0 C31.99004295 8.26883875 32.18328333 16.42629441 32.1875 24.75 C32.19974609 26.03777344 32.21199219 27.32554687 32.22460938 28.65234375 C32.22654297 29.89628906 32.22847656 31.14023438 32.23046875 32.421875 C32.23457764 33.54174805 32.23868652 34.66162109 32.24291992 35.81542969 C31.84159689 41.07659309 30.18975705 45.7849639 27 50 C21.99976647 53.53675055 16.91663832 53.82514132 11 53 C6.12274625 51.44520184 3.24453923 48.57062986 0.80725098 44.08322144 C-0.70559396 40.17911839 -0.48732093 36.26260997 -0.390625 32.12890625 C-0.38496521 31.206577 -0.37930542 30.28424774 -0.37347412 29.33396912 C-0.35121637 26.40960142 -0.30104047 23.48649269 -0.25 20.5625 C-0.22992127 18.57098133 -0.21167291 16.57944331 -0.1953125 14.58789062 C-0.1513864 9.72478083 -0.08243313 4.86260332 0 0 Z " fill="#EFEFF3" transform="translate(432,185)"/>
<path d="M0 0 C4.62 0 9.24 0 14 0 C15.57380494 4.72141481 16.68285686 9.13435976 17.5 14 C17.62818115 14.74113037 17.7563623 15.48226074 17.88842773 16.24584961 C18.89311082 22.13961194 19.72076665 28.05262647 20.52734375 33.9765625 C20.9268887 36.53232939 21.44261894 38.94657053 22.125 41.4375 C23.04992396 45.20326184 23.16021127 48.15492942 23 52 C21.37585622 52.19477739 19.75063577 52.38059458 18.125 52.5625 C16.76761719 52.71912109 16.76761719 52.71912109 15.3828125 52.87890625 C13 53 13 53 11 52 C10.375 49.9375 10.375 49.9375 10 48 C8.02 47.67 6.04 47.34 4 47 C3.505 49.475 3.505 49.475 3 52 C-0.63 52 -4.26 52 -8 52 C-9.31102814 48.06691558 -8.43124564 44.98784001 -7.63671875 41.03515625 C-7.48467484 40.24660751 -7.33263092 39.45805878 -7.17597961 38.64561462 C-6.68692927 36.11646692 -6.18759961 33.58948385 -5.6875 31.0625 C-5.04295771 27.76222554 -4.40234439 24.46119287 -3.76171875 21.16015625 C-3.60686005 20.3663858 -3.45200134 19.57261536 -3.29244995 18.75479126 C-2.08216186 12.52007468 -1.0036677 6.27164944 0 0 Z M7 27 C6.67 30.3 6.34 33.6 6 37 C6.99 37 7.98 37 9 37 C8.67 33.7 8.34 30.4 8 27 C7.67 27 7.34 27 7 27 Z " fill="#F6F7F8" transform="translate(546,185)"/>
<path d="M0 0 C8.91 0 17.82 0 27 0 C27 3.63 27 7.26 27 11 C22.05 11 17.1 11 12 11 C12 13.97 12 16.94 12 20 C12.99902344 19.98839844 13.99804688 19.97679687 15.02734375 19.96484375 C16.31769531 19.95582031 17.60804688 19.94679687 18.9375 19.9375 C20.22527344 19.92589844 21.51304687 19.91429687 22.83984375 19.90234375 C26 20 26 20 27 21 C27.14257189 24.33618231 27.04228157 27.65975606 27 31 C22.05 31 17.1 31 12 31 C12 34.63 12 38.26 12 42 C12.99902344 41.91621094 13.99804688 41.83242187 15.02734375 41.74609375 C16.96287109 41.59333984 16.96287109 41.59333984 18.9375 41.4375 C20.22527344 41.33308594 21.51304687 41.22867188 22.83984375 41.12109375 C23.88269531 41.08113281 24.92554688 41.04117188 26 41 C28.60341656 43.60341656 27 48.31821299 27 52 C18.09 52 9.18 52 0 52 C0 34.84 0 17.68 0 0 Z " fill="#EEEEF2" transform="translate(338,185)"/>
<path d="M0 0 C1.20970459 0.00523682 2.41940918 0.01047363 3.66577148 0.01586914 C4.97094727 0.0190918 6.27612305 0.02231445 7.62084961 0.02563477 C9.00952213 0.03399138 10.39819401 0.04245634 11.78686523 0.05102539 C13.17944179 0.05603873 14.57202005 0.06060193 15.96459961 0.06469727 C19.38456394 0.07653105 22.80444367 0.09301659 26.22436523 0.11352539 C26.29061071 2.01539342 26.33765226 3.91793607 26.37670898 5.82055664 C26.40498779 6.87992432 26.4332666 7.93929199 26.46240234 9.03076172 C26.13537012 13.2660806 24.50810199 15.74424923 22.15795898 19.18774414 C19.61935093 23.02899148 17.49541554 27.04345926 15.34936523 31.11352539 C14.94403564 31.86851318 14.53870605 32.62350098 14.12109375 33.40136719 C11.98881725 37.05545492 11.98881725 37.05545492 11.22436523 41.11352539 C12.21178711 41.0787207 13.19920898 41.04391602 14.21655273 41.00805664 C15.49788086 40.98098633 16.77920898 40.95391602 18.09936523 40.92602539 C20.01362305 40.87381836 20.01362305 40.87381836 21.96655273 40.82055664 C23.57916992 40.96557617 23.57916992 40.96557617 25.22436523 41.11352539 C27.66205741 44.77006366 27.46380962 46.8035264 27.22436523 51.11352539 C25.34117255 52.99671807 22.10506386 52.24406824 19.59936523 52.24633789 C18.93727051 52.24729462 18.27517578 52.24825134 17.59301758 52.24923706 C16.19083562 52.24991865 14.78865053 52.24806581 13.38647461 52.24389648 C11.2334081 52.23854785 9.08055021 52.24384209 6.92749023 52.25024414 C5.56811477 52.24958336 4.20873944 52.24830218 2.84936523 52.24633789 C1.60413086 52.24520996 0.35889648 52.24408203 -0.92407227 52.24291992 C-3.77563477 52.11352539 -3.77563477 52.11352539 -4.77563477 51.11352539 C-5.43262026 44.81467695 -3.57279646 40.62210994 -0.77563477 35.05102539 C-0.37352783 34.22626709 0.0285791 33.40150879 0.44287109 32.55175781 C4.06073923 25.22460039 8.02744075 18.12364722 12.22436523 11.11352539 C10.61754883 11.13092773 10.61754883 11.13092773 8.97827148 11.14868164 C7.5811378 11.15805838 6.18400225 11.1671587 4.78686523 11.17602539 C4.07981445 11.1844043 3.37276367 11.1927832 2.64428711 11.20141602 C0.83742964 11.21006127 -0.96951079 11.16572551 -2.77563477 11.11352539 C-3.77563477 10.11352539 -3.77563477 10.11352539 -3.90844727 8.08227539 C-3.90586914 7.26758789 -3.90329102 6.45290039 -3.90063477 5.61352539 C-3.90321289 4.79883789 -3.90579102 3.98415039 -3.90844727 3.14477539 C-3.70018365 -0.04043288 -3.23205114 0.13219314 0 0 Z " fill="#F4F4F6" transform="translate(387.775634765625,184.886474609375)"/>
<path d="M0 0 C-0.875 2.46484375 -0.875 2.46484375 -2 5 C-3.32303717 5.3721042 -4.65737935 5.70630173 -6 6 C-6.2990625 6.60199219 -6.598125 7.20398438 -6.90625 7.82421875 C-8.13022368 10.2590521 -9.42287288 11.50732555 -11.5 13.25 C-12.1084375 13.77078125 -12.716875 14.2915625 -13.34375 14.828125 C-15 16 -15 16 -17 16 C-17.495 17.485 -17.495 17.485 -18 19 C-19.98600337 20.3540932 -21.98817543 21.68457624 -24 23 C-25.67100504 24.66231697 -27.33688572 26.3297885 -29 28 C-31.36230433 30.12249783 -33.77478046 32.18515382 -36.1875 34.25 C-42.19750176 39.42325014 -48.1364413 44.66071243 -54 50 C-54.33 48.68 -54.66 47.36 -55 46 C-50.25 42 -50.25 42 -48 42 C-48.33 41.01 -48.66 40.02 -49 39 C-46.71973999 35.57960999 -46.6132423 35.87593753 -43 35 C-41.20747941 33.70790088 -41.20747941 33.70790088 -40 32 C-40 31.01 -40 30.02 -40 29 C-37 28 -37 28 -34 29 C-34.495 27.515 -34.495 27.515 -35 26 C-35 24.68 -35 23.36 -35 22 C-37.31 22.99 -39.62 23.98 -42 25 C-42.495 24.01 -42.495 24.01 -43 23 C-41.37750059 22.16180842 -39.75191503 21.3295884 -38.125 20.5 C-37.22007812 20.0359375 -36.31515625 19.571875 -35.3828125 19.09375 C-33 18 -33 18 -31 18 C-31 17.34 -31 16.68 -31 16 C-30.030625 15.731875 -29.06125 15.46375 -28.0625 15.1875 C-27.051875 14.795625 -26.04125 14.40375 -25 14 C-24.67 13.01 -24.34 12.02 -24 11 C-23.34 10.67 -22.68 10.34 -22 10 C-29.62528339 11.04264079 -36.46932256 13.09465634 -43.640625 15.87890625 C-47.10583626 17.03531978 -50.37675355 17.59077546 -54 18 C-52.24135754 15.8206856 -51.30604 15.06313581 -48.51953125 14.48828125 C-47.62621094 14.43027344 -46.73289063 14.37226563 -45.8125 14.3125 C-44.91144531 14.24675781 -44.01039063 14.18101562 -43.08203125 14.11328125 C-42.39496094 14.07589844 -41.70789063 14.03851563 -41 14 C-41 13.34 -41 12.68 -41 12 C-40.34 11.67 -39.68 11.34 -39 11 C-39.59425781 11.0721875 -40.18851563 11.144375 -40.80078125 11.21875 C-47.22562641 11.93817279 -53.53847873 12.11055835 -60 12 C-59.67 10.68 -59.34 9.36 -59 8 C-59.928125 8.2475 -59.928125 8.2475 -60.875 8.5 C-63 9 -63 9 -65 9 C-65.99 9.66 -66.98 10.32 -68 11 C-70.3125 10.6875 -70.3125 10.6875 -73 10 C-74.99897128 9.66055205 -76.99875639 9.32578384 -79 9 C-79 8.67 -79 8.34 -79 8 C-80.65 7.67 -82.3 7.34 -84 7 C-84 6.67 -84 6.34 -84 6 C-83.4016333 5.98018066 -82.8032666 5.96036133 -82.18676758 5.93994141 C-79.39500716 5.84288799 -76.60381994 5.73396499 -73.8125 5.625 C-72.87212891 5.5940625 -71.93175781 5.563125 -70.96289062 5.53125 C-64.72829528 5.27763934 -58.72296933 4.53185021 -52.56860352 3.52587891 C-46.35001896 2.60949174 -40.0965794 2.09387336 -33.8347168 1.56738281 C-31.56811146 1.37547511 -29.30267664 1.17250656 -27.03710938 0.96875 C-17.99377013 0.18096288 -9.08423026 -0.17959836 0 0 Z " fill="#9A95F5" transform="translate(241,149)"/>
<path d="M0 0 C3.63 0 7.26 0 11 0 C11 17.16 11 34.32 11 52 C7.37 52 3.74 52 0 52 C-0.9892063 49.0323811 -1.09308174 47.24542185 -1.02172852 44.16137695 C-1.00163223 43.1805867 -0.98153595 42.19979645 -0.96083069 41.18928528 C-0.93379562 40.13295395 -0.90676056 39.07662262 -0.87890625 37.98828125 C-0.85529526 36.90491989 -0.83168427 35.82155853 -0.80735779 34.70536804 C-0.73070914 31.2409458 -0.64668961 27.7767464 -0.5625 24.3125 C-0.50928054 21.96550574 -0.45654014 19.61850057 -0.40429688 17.27148438 C-0.27509225 11.51418147 -0.13927626 5.75706771 0 0 Z " fill="#F8F8FA" transform="translate(589,185)"/>
<path d="M0 0 C0.99 0.33 1.98 0.66 3 1 C2.67 2.155 2.34 3.31 2 4.5 C-0.1775438 14.592995 -0.50284819 26.16790702 3.890625 35.69140625 C8.19698993 40.40448343 14.94284135 40.54285595 21 41 C21 41.33 21 41.66 21 42 C20.24074219 41.96519531 19.48148438 41.93039062 18.69921875 41.89453125 C17.70535156 41.86746094 16.71148437 41.84039062 15.6875 41.8125 C14.70136719 41.77769531 13.71523437 41.74289062 12.69921875 41.70703125 C9.61699607 41.75632586 9.61699607 41.75632586 7 45 C10.3 46.65 13.6 48.3 17 50 C10.26822095 51.68294476 4.06052634 48.53026317 -2 45.5 C-7.68342888 38.3957139 -8.66442399 29.30267371 -8.390625 20.47265625 C-7.54378343 12.94423474 -5.48000035 5.48000035 0 0 Z " fill="#534EAC" transform="translate(100,231)"/>
<path d="M0 0 C1.01126953 -0.01224609 2.02253906 -0.02449219 3.06445312 -0.03710938 C8.63566962 -0.04801195 13.30314925 0.3160292 18.5625 2.1875 C18.5625 2.8475 18.5625 3.5075 18.5625 4.1875 C19.5525 4.5175 20.5425 4.8475 21.5625 5.1875 C20.7375 5.80625 19.9125 6.425 19.0625 7.0625 C18.2375 7.76375 17.4125 8.465 16.5625 9.1875 C16.5625 9.8475 16.5625 10.5075 16.5625 11.1875 C3.86646924 11.3512024 -8.76023538 10.84660557 -21.4375 10.1875 C-21.7675 8.8675 -22.0975 7.5475 -22.4375 6.1875 C-23.7575 5.8575 -25.0775 5.5275 -26.4375 5.1875 C-26.4375 4.5275 -26.4375 3.8675 -26.4375 3.1875 C-23.4675 3.1875 -20.4975 3.1875 -17.4375 3.1875 C-17.4375 2.5275 -17.4375 1.8675 -17.4375 1.1875 C-11.63716797 -0.05188719 -5.90141961 0.00374693 0 0 Z " fill="#5E57BE" transform="translate(136.4375,96.8125)"/>
<path d="M0 0 C4.81993437 1.32101905 7.98316714 3.24726237 11.8125 6.4375 C12.76769531 7.21996094 13.72289063 8.00242188 14.70703125 8.80859375 C18.16043007 12.10903113 18.14710387 14.97180444 18.31640625 19.54296875 C18.35830078 20.61611328 18.40019531 21.68925781 18.44335938 22.79492188 C18.48267578 23.91447266 18.52199219 25.03402344 18.5625 26.1875 C18.60568359 27.31865234 18.64886719 28.44980469 18.69335938 29.61523438 C18.79949099 32.41003354 18.90154385 35.20492162 19 38 C20.65 38 22.3 38 24 38 C22.75 39.5 22.75 39.5 21 41 C19.68 41 18.36 41 17 41 C16.63757202 40.18317749 16.63757202 40.18317749 16.26782227 39.34985352 C14.50729207 35.38495129 12.74238807 31.42215044 10.96484375 27.46484375 C10.2890625 25.95572917 9.61328125 24.44661458 8.9375 22.9375 C8.59912109 22.18662109 8.26074219 21.43574219 7.91210938 20.66210938 C4.8901101 13.89914388 2.29077042 7.04852437 0 0 Z " fill="#6798DE" transform="translate(80,187)"/>
<path d="M0 0 C3.76032264 1.25344088 5.24880796 3.16044851 8 6 C10.9069053 8.61660706 13.83504032 11.20736049 16.76953125 13.79296875 C17.50558594 14.52128906 18.24164063 15.24960938 19 16 C19 16.66 19 17.32 19 18 C19.66 18.33 20.32 18.66 21 19 C20.38511719 19.33773437 19.77023438 19.67546875 19.13671875 20.0234375 C18.32847656 20.46945313 17.52023438 20.91546875 16.6875 21.375 C15.88699219 21.81585938 15.08648437 22.25671875 14.26171875 22.7109375 C12.46472057 23.73513335 10.72099292 24.85267138 9 26 C5.04 26.495 5.04 26.495 1 27 C0.67 18.09 0.34 9.18 0 0 Z " fill="#D691E8" transform="translate(97,199)"/>
<path d="M0 0 C0.78375 0.04125 1.5675 0.0825 2.375 0.125 C5.19347833 5.17882322 4.41178532 10.30896949 4.0625 15.875 C4.01416016 16.84566406 3.96582031 17.81632812 3.91601562 18.81640625 C3.52028012 25.97971988 3.52028012 25.97971988 2.375 27.125 C2.271875 28.259375 2.16875 29.39375 2.0625 30.5625 C1.375 34.125 1.375 34.125 -0.6875 35.5625 C-1.326875 35.748125 -1.96625 35.93375 -2.625 36.125 C-4.95430734 33.6724953 -5.60351964 32.36821978 -5.90551758 28.94873047 C-5.86064209 27.72557129 -5.8157666 26.50241211 -5.76953125 25.2421875 C-5.74783371 24.58670929 -5.72613617 23.93123108 -5.70378113 23.25588989 C-5.6546528 21.87554735 -5.5978808 20.49545819 -5.53393555 19.11572266 C-5.43752682 17.00058847 -5.36830062 14.88582297 -5.30273438 12.76953125 C-4.82513863 0.22976851 -4.82513863 0.22976851 0 0 Z " fill="#5E58BF" transform="translate(219.625,180.875)"/>
<path d="M0 0 C-0.875 2.46484375 -0.875 2.46484375 -2 5 C-3.32303717 5.3721042 -4.65737935 5.70630173 -6 6 C-6.309375 6.61875 -6.61875 7.2375 -6.9375 7.875 C-8.35844081 10.71688163 -10.24119033 11.54799491 -13 13 C-12.52354792 8.71193127 -11.34097516 6.73352513 -8 4 C-7.34 4 -6.68 4 -6 4 C-6 3.34 -6 2.68 -6 2 C-8.58484426 2.45084493 -11.1676329 2.91035263 -13.75 3.375 C-14.84441406 3.56449219 -14.84441406 3.56449219 -15.9609375 3.7578125 C-20.15435134 4.50723896 -20.15435134 4.50723896 -24.09375 6.0625 C-26.9201961 7.45255546 -29.62679112 7.43760747 -32.75 7.625 C-34.50570312 7.73714844 -34.50570312 7.73714844 -36.296875 7.8515625 C-37.18890625 7.90054688 -38.0809375 7.94953125 -39 8 C-39 7.01 -39 6.02 -39 5 C-39.84933105 5.24447876 -39.84933105 5.24447876 -40.71582031 5.49389648 C-43.07601117 6.01684172 -45.13282157 6.11396742 -47.546875 6.09765625 C-48.39121094 6.09443359 -49.23554688 6.09121094 -50.10546875 6.08789062 C-50.97816406 6.07951172 -51.85085937 6.07113281 -52.75 6.0625 C-54.08224609 6.05573242 -54.08224609 6.05573242 -55.44140625 6.04882812 C-57.62767329 6.037074 -59.81380179 6.02064249 -62 6 C-62 5.67 -62 5.34 -62 5 C-52.63518571 3.40315414 -43.29575123 2.36285623 -33.8347168 1.56738281 C-31.56811146 1.37547511 -29.30267664 1.17250656 -27.03710938 0.96875 C-17.99377013 0.18096288 -9.08423026 -0.17959836 0 0 Z " fill="#8187E6" transform="translate(241,149)"/>
<path d="M0 0 C2.0625 0.4375 2.0625 0.4375 4 1 C-2.28571429 6.57142857 -2.28571429 6.57142857 -6 7 C-6 7.66 -6 8.32 -6 9 C-7.62249941 9.83819158 -9.24808497 10.6704116 -10.875 11.5 C-11.77992188 11.9640625 -12.68484375 12.428125 -13.6171875 12.90625 C-16 14 -16 14 -18 14 C-18.33 14.99 -18.66 15.98 -19 17 C-21.9375 18.75 -21.9375 18.75 -25 20 C-25.66 19.67 -26.32 19.34 -27 19 C-25.625 17.5 -25.625 17.5 -24 16 C-23.34 16 -22.68 16 -22 16 C-22 15.34 -22 14.68 -22 14 C-21.32453125 13.68546875 -20.6490625 13.3709375 -19.953125 13.046875 C-13.32416431 9.93666114 -13.32416431 9.93666114 -8 5 C-11.20375747 6.01582554 -14.24771262 7.11217175 -17.3125 8.5 C-20.14072323 9.65046369 -22.37707672 10.35351614 -25.3125 10.9375 C-31.24588023 12.14839392 -36.66859645 14.54436008 -42.19921875 16.9609375 C-46.55961972 18.77154209 -49.42126869 19.25915111 -54 18 C-53.195625 17.87625 -53.195625 17.87625 -52.375 17.75 C-49.85506585 17.08488756 -49.85506585 17.08488756 -47.5 15.25 C-40.5717974 10.47373911 -33.05807405 7.80671788 -24.70703125 7.375 C-20.03226266 6.72741301 -15.76772148 4.8755385 -11.39453125 3.15625 C-7.91556501 1.97123963 -4.63477466 1.47075537 -1 1 C-0.67 0.67 -0.34 0.34 0 0 Z " fill="#B897F4" transform="translate(216,158)"/>
<path d="M0 0 C0.33 0 0.66 0 1 0 C1.02526787 7.10244999 1.04283201 14.20488848 1.05493164 21.30737305 C1.05997349 23.72567172 1.06680678 26.14396733 1.07543945 28.56225586 C1.08751157 32.02979283 1.09322963 35.49728966 1.09765625 38.96484375 C1.10281754 40.05337143 1.10797882 41.14189911 1.11329651 42.26341248 C1.11337204 43.26437454 1.11344757 44.26533661 1.11352539 45.29663086 C1.115746 46.18265488 1.11796661 47.06867889 1.12025452 47.98155212 C1 50 1 50 0 51 C-1.83115883 51.09851171 -3.66619933 51.12972629 -5.5 51.125 C-6.5003125 51.12757813 -7.500625 51.13015625 -8.53125 51.1328125 C-11 51 -11 51 -12 50 C-12.08790975 47.70848583 -12.10694038 45.41427476 -12.09765625 43.12109375 C-12.0962413 42.4344313 -12.09482635 41.74776886 -12.09336853 41.04029846 C-12.08775479 38.83932199 -12.07520007 36.63844591 -12.0625 34.4375 C-12.05748676 32.94856917 -12.05292355 31.45963676 -12.04882812 29.97070312 C-12.03778093 26.31376925 -12.02050713 22.65689442 -12 19 C-11.01 19 -10.02 19 -9 19 C-8.67 28.9 -8.34 38.8 -8 49 C-5.69 49.33 -3.38 49.66 -1 50 C-1.33 49.34 -1.66 48.68 -2 48 C-2.03318433 46.45574632 -1.99860287 44.90978214 -1.92993164 43.36669922 C-1.88981461 42.40585419 -1.84969757 41.44500916 -1.80836487 40.45504761 C-1.75945602 39.41542877 -1.71054718 38.37580994 -1.66015625 37.3046875 C-1.61434921 36.24210724 -1.56854218 35.17952698 -1.52134705 34.08474731 C-1.37345674 30.68125429 -1.21806026 27.27815027 -1.0625 23.875 C-0.96109507 21.57163626 -0.86017728 19.26825101 -0.75976562 16.96484375 C-0.51216864 11.30963393 -0.25840335 5.65472578 0 0 Z " fill="#A1A2B7" transform="translate(519,186)"/>
<path d="M0 0 C-0.9590625 0.4021875 -0.9590625 0.4021875 -1.9375 0.8125 C-4.33131686 1.88667752 -4.33131686 1.88667752 -5 5 C-6.98600337 6.3540932 -8.98817543 7.68457624 -11 9 C-12.67100504 10.66231697 -14.33688572 12.3297885 -16 14 C-18.36230433 16.12249783 -20.77478046 18.18515382 -23.1875 20.25 C-29.19750176 25.42325014 -35.1364413 30.66071243 -41 36 C-41.33 34.68 -41.66 33.36 -42 32 C-37.25 28 -37.25 28 -35 28 C-35.33 27.01 -35.66 26.02 -36 25 C-34 22 -34 22 -32.25 21.625 C-29.66235467 21.07678415 -29.66235467 21.07678415 -27 18.4375 C-24 16 -24 16 -20 16 C-20 15.34 -20 14.68 -20 14 C-19.34 14 -18.68 14 -18 14 C-18 13.01 -18 12.02 -18 11 C-16 8.8125 -16 8.8125 -14 7 C-14.99 6.67 -15.98 6.34 -17 6 C-14.21425013 2.90472237 -11.96117877 1.2873831 -8 0 C-7.319375 -0.226875 -6.63875 -0.45375 -5.9375 -0.6875 C-3.68483693 -1.05083275 -2.15544579 -0.69282186 0 0 Z " fill="#797FE2" transform="translate(228,163)"/>
<path d="M0 0 C0.495 1.98 0.495 1.98 1 4 C-5.58489882 7.95093929 -13.59625265 7.12049498 -21 7 C-20.67 5.68 -20.34 4.36 -20 3 C-20.61875 3.165 -21.2375 3.33 -21.875 3.5 C-24 4 -24 4 -26 4 C-26.99 4.66 -27.98 5.32 -29 6 C-31.3125 5.6875 -31.3125 5.6875 -34 5 C-35.99897128 4.66055205 -37.99875639 4.32578384 -40 4 C-40 3.67 -40 3.34 -40 3 C-41.65 2.67 -43.3 2.34 -45 2 C-45 1.67 -45 1.34 -45 1 C-29.99782788 -0.09819822 -15.03672639 -0.10881621 0 0 Z " fill="#9690EE" transform="translate(202,154)"/>
<path d="M0 0 C0.99 0.33 1.98 0.66 3 1 C2.68289062 2.24652344 2.36578125 3.49304688 2.0390625 4.77734375 C0.79875182 10.35874183 0.55606982 15.86257297 0.375 21.5625 C0.33632812 22.57119141 0.29765625 23.57988281 0.2578125 24.61914062 C0.16453797 27.0792564 0.07874484 29.53938366 0 32 C-1.485 32.495 -1.485 32.495 -3 33 C-3.66 32.67 -4.32 32.34 -5 32 C-6.23834251 27.7928107 -6.21744928 23.47865878 -6.25 19.125 C-6.270625 18.44308594 -6.29125 17.76117188 -6.3125 17.05859375 C-6.3634983 10.36506701 -4.3621135 5.19299226 0 0 Z " fill="#5D57BE" transform="translate(100,231)"/>
<path d="M0 0 C-0.1875 1.875 -0.1875 1.875 -1 4 C-3.375 5.3125 -3.375 5.3125 -6 6 C-6.99 5.67 -7.98 5.34 -9 5 C-9 4.34 -9 3.68 -9 3 C-8.34 3 -7.68 3 -7 3 C-7 2.34 -7 1.68 -7 1 C-4.53721199 -0.231394 -2.7204945 -0.07159196 0 0 Z M-9 5 C-11.64 6.98 -14.28 8.96 -17 11 C-16.34 11.33 -15.68 11.66 -15 12 C-15.66 13.32 -16.32 14.64 -17 16 C-17.66 16 -18.32 16 -19 16 C-19 16.99 -19 17.98 -19 19 C-19.66 19 -20.32 19 -21 19 C-21 19.66 -21 20.32 -21 21 C-23.31 21.33 -25.62 21.66 -28 22 C-28 21.34 -28 20.68 -28 20 C-25 19 -25 19 -22 20 C-22.33 19.01 -22.66 18.02 -23 17 C-23 15.68 -23 14.36 -23 13 C-26.465 14.485 -26.465 14.485 -30 16 C-30.33 15.34 -30.66 14.68 -31 14 C-29.37750059 13.16180842 -27.75191503 12.3295884 -26.125 11.5 C-24.76761719 10.80390625 -24.76761719 10.80390625 -23.3828125 10.09375 C-21 9 -21 9 -19 9 C-19 8.34 -19 7.68 -19 7 C-12.375 3.875 -12.375 3.875 -9 5 Z " fill="#918BEF" transform="translate(229,158)"/>
<path d="M0 0 C4.76151775 1.31911677 7.9880971 3.19961392 11.8125 6.3125 C12.76769531 7.07175781 13.72289063 7.83101562 14.70703125 8.61328125 C17.2036423 11.21196839 17.83180839 12.44477743 18 16 C17.67 16.99 17.34 17.98 17 19 C13.84930578 17.63310446 11.99108226 16.14342115 9.8125 13.5 C9.30332031 12.8915625 8.79414062 12.283125 8.26953125 11.65625 C7 10 7 10 6 8 C5.34 8.66 4.68 9.32 4 10 C3.32845067 8.71086513 2.66291141 7.41859796 2 6.125 C1.62875 5.40570313 1.2575 4.68640625 0.875 3.9453125 C0 2 0 2 0 0 Z " fill="#5B8FF1" transform="translate(80,187)"/>
<path d="M0 0 C-0.3125 1.9375 -0.3125 1.9375 -1 4 C-1.99 4.33 -2.98 4.66 -4 5 C-5.00642948 6.32848691 -6.00692179 7.66150329 -7 9 C-7.66 9 -8.32 9 -9 9 C-9.2475 9.556875 -9.495 10.11375 -9.75 10.6875 C-11.21606015 13.39971127 -13.02989471 15.63587365 -15 18 C-15 16.68 -15 15.36 -15 14 C-14.34 14 -13.68 14 -13 14 C-12.814375 13.1028125 -12.814375 13.1028125 -12.625 12.1875 C-12 10 -12 10 -10 7 C-10.598125 7.495 -11.19625 7.99 -11.8125 8.5 C-14 10 -14 10 -17 10 C-17.33 10.66 -17.66 11.32 -18 12 C-17.4409112 8.75728494 -16.5867822 7.06942576 -14 5 C-13.34 5 -12.68 5 -12 5 C-11.95875 4.38125 -11.9175 3.7625 -11.875 3.125 C-11 1 -11 1 -8.25 -0.3125 C-5.00602225 -0.99872606 -3.14269207 -0.9243212 0 0 Z " fill="#5D58BE" transform="translate(80,196)"/>
<path d="M0 0 C1.98 0.495 1.98 0.495 4 1 C3.67 1.33 3.34 1.66 3 2 C2.8775669 3.50316769 2.82223715 5.01188167 2.79467773 6.51977539 C2.77473251 7.48069595 2.75478729 8.44161652 2.73423767 9.43165588 C2.71752518 10.476436 2.70081268 11.52121613 2.68359375 12.59765625 C2.66281265 13.66165146 2.64203156 14.72564667 2.62062073 15.82188416 C2.55500746 19.2353544 2.49618577 22.64890429 2.4375 26.0625 C2.39432597 28.37045109 2.35071206 30.678394 2.30664062 32.98632812 C2.19931416 38.65746682 2.09757008 44.32868552 2 50 C0.515 50.495 0.515 50.495 -1 51 C-0.67 34.17 -0.34 17.34 0 0 Z " fill="#B4B5C5" transform="translate(286,185)"/>
<path d="M0 0 C0.99 0.33 1.98 0.66 3 1 C3.07526343 5.05264618 3.12911541 9.1050108 3.16479492 13.15820312 C3.17969923 14.53132226 3.20002997 15.90439539 3.22631836 17.27734375 C3.39507082 26.33041708 2.71645437 34.33919622 0 43 C-0.33 43 -0.66 43 -1 43 C-1.02688151 41.35425434 -1.04634123 39.70838587 -1.0625 38.0625 C-1.07410156 37.14597656 -1.08570313 36.22945312 -1.09765625 35.28515625 C-1 33 -1 33 0 32 C0.38284139 28.57682326 0.47038366 25.12771358 0.625 21.6875 C0.6765625 20.72392578 0.728125 19.76035156 0.78125 18.76757812 C0.82507813 17.83751953 0.86890625 16.90746094 0.9140625 15.94921875 C0.9548291 15.09674561 0.9955957 14.24427246 1.03759766 13.3659668 C1.00113413 11.07136922 0.65491108 9.19094648 0 7 C-3.62885324 6.84850702 -3.62885324 6.84850702 -7 8 C-6.67 7.01 -6.34 6.02 -6 5 C-5.01 4.67 -4.02 4.34 -3 4 C-1.31461399 2.00334686 -1.31461399 2.00334686 0 0 Z " fill="#484496" transform="translate(222,175)"/>
<path d="M0 0 C-0.875 2.46484375 -0.875 2.46484375 -2 5 C-3.32303717 5.3721042 -4.65737935 5.70630173 -6 6 C-6.309375 6.61875 -6.61875 7.2375 -6.9375 7.875 C-8.35844081 10.71688163 -10.24119033 11.54799491 -13 13 C-12.52354792 8.71193127 -11.34097516 6.73352513 -8 4 C-7.34 4 -6.68 4 -6 4 C-6 3.34 -6 2.68 -6 2 C-8.75031587 2.14111883 -11.50015418 2.28771165 -14.25 2.4375 C-15.02730469 2.47681641 -15.80460937 2.51613281 -16.60546875 2.55664062 C-17.73662109 2.61948242 -17.73662109 2.61948242 -18.890625 2.68359375 C-19.92751465 2.73858032 -19.92751465 2.73858032 -20.98535156 2.79467773 C-23.02625881 2.9490294 -23.02625881 2.9490294 -25.05371094 3.54711914 C-27.84891711 4.19753403 -30.22178864 3.56827051 -33 3 C-33 2.67 -33 2.34 -33 2 C-22.23271386 -0.38604665 -10.9731526 -0.15008871 0 0 Z " fill="#7474C8" transform="translate(241,149)"/>
<path d="M0 0 C-3.0982436 3.0982436 -5.91453828 3.3484157 -10.16015625 3.6875 C-16.16792358 4.34860232 -22.08768922 5.76938328 -28 7 C-28.83273438 7.16371094 -29.66546875 7.32742187 -30.5234375 7.49609375 C-32.45600486 7.88931329 -34.38192162 8.31526108 -36.3046875 8.75390625 C-38.07199219 9.15416016 -38.07199219 9.15416016 -39.875 9.5625 C-41.63457031 9.96662109 -41.63457031 9.96662109 -43.4296875 10.37890625 C-47.02866816 11.00498713 -50.35504025 11.1072047 -54 11 C-51.16668003 8.59465227 -49.42942078 7.66447604 -45.72265625 7.53515625 C-37.77562325 6.95387923 -30.09565193 4.81337294 -22.37426758 2.93579102 C-14.8435531 1.11426305 -7.79393868 -0.47366478 0 0 Z " fill="#B1A9F8" transform="translate(189,161)"/>
<path d="M0 0 C0.33 0 0.66 0 1 0 C1.33 5.61 1.66 11.22 2 17 C3.65 17 5.3 17 7 17 C5.75 18.5 5.75 18.5 4 20 C2.68 20 1.36 20 0 20 C-0.26554687 19.39671875 -0.53109375 18.7934375 -0.8046875 18.171875 C-1.33449219 16.97304687 -1.33449219 16.97304687 -1.875 15.75 C-2.22304687 14.96109375 -2.57109375 14.1721875 -2.9296875 13.359375 C-3.61338228 11.8522522 -4.34168661 10.36408326 -5.125 8.90625 C-6.34738025 6.24320731 -6.13129583 3.88850818 -6 1 C-4.68 1.33 -3.36 1.66 -2 2 C-2 3.32 -2 4.64 -2 6 C-1.34 6 -0.68 6 0 6 C0 4.02 0 2.04 0 0 Z " fill="#91BCF1" transform="translate(97,208)"/>
<path d="M0 0 C0.33 0 0.66 0 1 0 C1 13.2 1 26.4 1 40 C0.01 40 -0.98 40 -2 40 C-2.04948633 34.94630355 -2.08576045 29.89274858 -2.10986328 24.83886719 C-2.1199127 23.12009219 -2.13355445 21.40133425 -2.15087891 19.68261719 C-2.17517391 17.21024359 -2.18649368 14.73809631 -2.1953125 12.265625 C-2.21079636 11.11540863 -2.21079636 11.11540863 -2.22659302 9.94195557 C-2.22739012 6.14043233 -2.14509572 3.22135482 0 0 Z " fill="#7F7E86" transform="translate(444,186)"/>
<path d="M0 0 C1.38080229 3.71922259 0.55462164 5.75183132 -0.890625 9.359375 C-3.36108455 16.35404963 -3.66202165 22.88381308 -3.75 30.25 C-3.77964844 31.48363281 -3.80929688 32.71726563 -3.83984375 33.98828125 C-3.90970348 36.99224975 -3.96281217 39.9954801 -4 43 C-4.33 43 -4.66 43 -5 43 C-5.33 40.69 -5.66 38.38 -6 36 C-6.33 36 -6.66 36 -7 36 C-7.54913077 23.57337401 -5.26474708 12.63112841 -1 1 C-0.67 0.67 -0.34 0.34 0 0 Z " fill="#39368C" transform="translate(54,159)"/>
<path d="M0 0 C-9.74421945 5.27624786 -19.92602225 9.70545622 -31 11 C-29.24135754 8.8206856 -28.30604 8.06313581 -25.51953125 7.48828125 C-24.62621094 7.43027344 -23.73289063 7.37226563 -22.8125 7.3125 C-21.91144531 7.24675781 -21.01039063 7.18101562 -20.08203125 7.11328125 C-19.05142578 7.05720703 -19.05142578 7.05720703 -18 7 C-18 6.34 -18 5.68 -18 5 C-17.34 4.67 -16.68 4.34 -16 4 C-16.66 3.34 -17.32 2.68 -18 2 C-15.56421213 1.46969932 -13.12694025 0.95047688 -10.6875 0.4375 C-9.65206055 0.21030273 -9.65206055 0.21030273 -8.59570312 -0.02148438 C-5.24455934 -0.71761569 -3.30465928 -1.10155309 0 0 Z " fill="#A2A7FC" transform="translate(218,156)"/>
<path d="M0 0 C1.2065625 0.0309375 1.2065625 0.0309375 2.4375 0.0625 C1.4475 0.3925 0.4575 0.7225 -0.5625 1.0625 C-0.5625 4.0325 -0.5625 7.0025 -0.5625 10.0625 C4.0575 10.0625 8.6775 10.0625 13.4375 10.0625 C13.4375 14.02852757 13.03594485 16.46599908 11.4375 20.0625 C9.3125 20.9375 9.3125 20.9375 7.4375 21.0625 C8.77443388 17.46306264 10.43230605 14.33124082 12.4375 11.0625 C10.83068359 11.07990234 10.83068359 11.07990234 9.19140625 11.09765625 C7.79427257 11.10703299 6.39713701 11.11613331 5 11.125 C4.29294922 11.13337891 3.58589844 11.14175781 2.85742188 11.15039062 C1.05056441 11.15903588 -0.75637603 11.11470011 -2.5625 11.0625 C-3.5625 10.0625 -3.5625 10.0625 -3.6953125 8.03125 C-3.69273437 7.2165625 -3.69015625 6.401875 -3.6875 5.5625 C-3.69007813 4.7478125 -3.69265625 3.933125 -3.6953125 3.09375 C-3.49425003 0.01867689 -3.10408492 0.07570939 0 0 Z " fill="#C5C5D3" transform="translate(387.5625,184.9375)"/>
<path d="M0 0 C3.96 0 7.92 0 12 0 C12 0.33 12 0.66 12 1 C7.545 1.495 7.545 1.495 3 2 C3.020625 3.299375 3.04125 4.59875 3.0625 5.9375 C3.08399454 7.29165633 3.07148199 8.64756083 3 10 C2.67 10.33 2.34 10.66 2 11 C1.84111908 13.28988781 1.74861927 15.58443441 1.68359375 17.87890625 C1.66281265 18.5655687 1.64203156 19.25223114 1.62062073 19.95970154 C1.55505857 22.16052935 1.49620985 24.36147975 1.4375 26.5625 C1.39432108 28.05144514 1.350707 29.54037773 1.30664062 31.02929688 C1.1993707 34.68606553 1.09812228 38.34297318 1 42 C0.67 42 0.34 42 0 42 C0 28.14 0 14.28 0 0 Z " fill="#767689" transform="translate(432,185)"/>
<path d="M0 0 C1.32 0.33 2.64 0.66 4 1 C3.030625 1.5775 2.06125 2.155 1.0625 2.75 C-2.09469292 4.64792862 -2.09469292 4.64792862 -2.875 7.25 C-2.91625 7.8275 -2.9575 8.405 -3 9 C-3.66 9 -4.32 9 -5 9 C-5.33 9.99 -5.66 10.98 -6 12 C-6.37125 11.5875 -6.7425 11.175 -7.125 10.75 C-9.08776254 8.81777801 -9.08776254 8.81777801 -12.0625 7 C-15 5 -15 5 -17 2 C-14.33169336 2.44471777 -12.31242744 2.80473285 -10 4.25 C-9.34 4.4975 -8.68 4.745 -8 5 C-5.41055254 3.66299965 -5.41055254 3.66299965 -3 2 C-2.01 2 -1.02 2 0 2 C0 1.34 0 0.68 0 0 Z " fill="#F7BDF6" transform="translate(128,208)"/>
<path d="M0 0 C0.66 0.33 1.32 0.66 2 1 C2 4 2 4 0.53125 5.578125 C-0.1390625 6.12984375 -0.809375 6.6815625 -1.5 7.25 C-2.5828125 8.15685547 -2.5828125 8.15685547 -3.6875 9.08203125 C-4.450625 9.71496094 -5.21375 10.34789062 -6 11 C-7.5037703 12.30817856 -9.00397861 13.62046688 -10.5 14.9375 C-11.66666667 15.95833333 -12.83333333 16.97916667 -14 18 C-14.33 16.68 -14.66 15.36 -15 14 C-10.25 10 -10.25 10 -8 10 C-8.33 9.01 -8.66 8.02 -9 7 C-6.71973999 3.57960999 -6.6132423 3.87593753 -3 3 C-1.26973898 1.52109931 -1.26973898 1.52109931 0 0 Z " fill="#968CE0" transform="translate(201,181)"/>
<path d="M0 0 C2 2 2 2 2.265625 4.609375 C2.22621182 12.53142325 1.5281808 18.30616752 -3 25 C-3.33 25 -3.66 25 -4 25 C-4 23.35 -4 21.7 -4 20 C-3.34 20 -2.68 20 -2 20 C-1.97494385 19.42967041 -1.9498877 18.85934082 -1.92407227 18.27172852 C-1.80843451 15.70173843 -1.68556376 13.13214473 -1.5625 10.5625 C-1.52318359 9.66466797 -1.48386719 8.76683594 -1.44335938 7.84179688 C-1.40146484 6.98779297 -1.35957031 6.13378906 -1.31640625 5.25390625 C-1.27974854 4.46314697 -1.24309082 3.6723877 -1.20532227 2.85766602 C-1 1 -1 1 0 0 Z " fill="#B2B2B7" transform="translate(462,210)"/>
<path d="M0 0 C0.99 0.33 1.98 0.66 3 1 C4.1875 3.5625 4.1875 3.5625 5 6 C5.66 6 6.32 6 7 6 C6.67 7.32 6.34 8.64 6 10 C5.34 9.01 4.68 8.02 4 7 C3.67 16.57 3.34 26.14 3 36 C2.67 36 2.34 36 2 36 C1.97494385 35.18732666 1.9498877 34.37465332 1.92407227 33.53735352 C1.80850882 29.87889248 1.68560416 26.22071472 1.5625 22.5625 C1.52318359 21.28310547 1.48386719 20.00371094 1.44335938 18.68554688 C1.40146484 17.47060547 1.35957031 16.25566406 1.31640625 15.00390625 C1.27974854 13.87799072 1.24309082 12.7520752 1.20532227 11.59204102 C1.28781955 9.07146559 1.28781955 9.07146559 0 8 C-0.14115161 5.32941149 -0.04247107 2.67567762 0 0 Z " fill="#CDC7D8" transform="translate(493,200)"/>
<path d="M0 0 C-4.25791838 3.84586176 -8.77537561 5.83182863 -14 8 C-14.886875 8.433125 -15.77375 8.86625 -16.6875 9.3125 C-19.71704232 10.21317474 -21.95863414 9.70729439 -25 9 C-24.195625 8.87625 -24.195625 8.87625 -23.375 8.75 C-20.85506585 8.08488756 -20.85506585 8.08488756 -18.5 6.25 C-13.53979488 2.79443294 -5.93475463 -1.97825154 0 0 Z " fill="#CCB0F7" transform="translate(187,167)"/>
<path d="M0 0 C0.33 0 0.66 0 1 0 C1.08821107 3.95818926 1.14079412 7.91612062 1.1875 11.875 C1.21263672 12.98359375 1.23777344 14.0921875 1.26367188 15.234375 C1.33238586 23.0219594 0.51848807 29.96302387 -3 37 C-3.66 37 -4.32 37 -5 37 C-4.70967339 35.52056973 -4.41764321 34.04147377 -4.125 32.5625 C-3.94324219 31.63566406 -3.76148438 30.70882812 -3.57421875 29.75390625 C-3.23962123 28.14920385 -2.8795849 26.54865993 -2.45703125 24.96484375 C-0.30758396 16.83573108 -0.34264316 8.3586898 0 0 Z " fill="#464492" transform="translate(214,183)"/>
<path d="M0 0 C-3 2 -3 2 -5 2 C-5.99 2.66 -6.98 3.32 -8 4 C-10.3125 3.6875 -10.3125 3.6875 -13 3 C-14.99897128 2.66055205 -16.99875639 2.32578384 -19 2 C-19 1.67 -19 1.34 -19 1 C-20.65 0.67 -22.3 0.34 -24 0 C-24 -0.33 -24 -0.66 -24 -1 C-21.12546578 -1.22297226 -18.2513818 -1.42878171 -15.375 -1.625 C-14.56675781 -1.68945312 -13.75851563 -1.75390625 -12.92578125 -1.8203125 C-8.12222508 -2.13273892 -4.52932939 -1.92020113 0 0 Z " fill="#9C86D3" transform="translate(181,156)"/>
<path d="M0 0 C4.62 0 9.24 0 14 0 C15.54518554 4.63555663 16.31161121 7.67416813 16.625 12.375 C16.69976563 13.43460938 16.77453125 14.49421875 16.8515625 15.5859375 C16.90054688 16.38257813 16.94953125 17.17921875 17 18 C16.34 18 15.68 18 15 18 C14.49255577 16.10614563 13.99435426 14.20981334 13.5 12.3125 C13.2215625 11.25675781 12.943125 10.20101562 12.65625 9.11328125 C12 6 12 6 12 1 C8.37 1 4.74 1 1 1 C0.67 1.99 0.34 2.98 0 4 C0 2.68 0 1.36 0 0 Z " fill="#A5A6B6" transform="translate(546,185)"/>
<path d="M0 0 C1.65 0 3.3 0 5 0 C3.68 0.33 2.36 0.66 1 1 C1.33 17.83 1.66 34.66 2 52 C1.01 51.67 0.02 51.34 -1 51 C-0.67 34.17 -0.34 17.34 0 0 Z " fill="#B9BAD1" transform="translate(589,185)"/>
<path d="M0 0 C0.33 0 0.66 0 1 0 C1.02684312 2.81256281 1.04676188 5.62487241 1.0625 8.4375 C1.07087891 9.23994141 1.07925781 10.04238281 1.08789062 10.86914062 C1.0965143 12.91295221 1.0522815 14.95683902 1 17 C0 18 0 18 -2.72265625 18.09765625 C-5.81510417 18.06510417 -8.90755208 18.03255208 -12 18 C-12 12.39 -12 6.78 -12 1 C-11.67 1 -11.34 1 -11 1 C-11 6.28 -11 11.56 -11 17 C-8.03 16.67 -5.06 16.34 -2 16 C-1.34 10.72 -0.68 5.44 0 0 Z " fill="#6769B6" transform="translate(317,219)"/>
<path d="M0 0 C0.99 0.33 1.98 0.66 3 1 C2.690625 2.258125 2.38125 3.51625 2.0625 4.8125 C0.85947548 10.17065177 0.38848904 15.5304832 0 21 C-0.66 20.67 -1.32 20.34 -2 20 C-2 16 -2 12 -2 8 C-2.99 8.33 -3.98 8.66 -5 9 C-3.7508258 5.54074837 -2.32472205 2.85306797 0 0 Z " fill="#3C3A89" transform="translate(100,231)"/>
<path d="M0 0 C3.35741626 0.59953862 5.53389454 1.61893266 8 4 C9.07992835 7.32285646 9.1196437 8.64106891 8 12 C4.62118566 10.60186993 2.84982122 9.17112209 1 6 C0.3125 2.75 0.3125 2.75 0 0 Z " fill="#4C83F5" transform="translate(89,194)"/>
<path d="M0 0 C3.3 0 6.6 0 10 0 C10 0.99 10 1.98 10 3 C7.69 2.67 5.38 2.34 3 2 C3 4.97 3 7.94 3 11 C4.65 11 6.3 11 8 11 C5.25002779 12.4731994 3.10380501 13.22404875 0 14 C0 9.38 0 4.76 0 0 Z " fill="#E0E0E7" transform="translate(295,194)"/>
<path d="M0 0 C-3.59178954 3.59178954 -8.98574502 3.05289607 -13.83984375 3.09765625 C-15.53909024 3.09109545 -17.23832387 3.07929794 -18.9375 3.0625 C-19.81212891 3.05798828 -20.68675781 3.05347656 -21.58789062 3.04882812 C-23.72529047 3.03714834 -25.86265463 3.01921689 -28 3 C-28 2.67 -28 2.34 -28 2 C-5.30893434 -1.76964478 -5.30893434 -1.76964478 0 0 Z " fill="#6F68C1" transform="translate(207,152)"/>
<path d="M0 0 C1 3 1 3 0 6 C-0.09182942 7.53949329 -0.13002352 9.08277855 -0.125 10.625 C-0.12757812 11.42164063 -0.13015625 12.21828125 -0.1328125 13.0390625 C-0.21570074 15.00353536 -0.21570074 15.00353536 1 16 C1.04063832 17.66617115 1.042721 19.33388095 1 21 C-1.7972908 18.93243723 -2.02692273 17.85559629 -2.6875 14.3125 C-2.790625 13.219375 -2.89375 12.12625 -3 11 C-3.33 12.65 -3.66 14.3 -4 16 C-4.33 16 -4.66 16 -5 16 C-5.76681614 7.37757848 -5.76681614 7.37757848 -3.88671875 4 C-2.5 2.375 -2.5 2.375 0 0 Z " fill="#5653AF" transform="translate(99,236)"/>
<path d="M0 0 C1.98 0 3.96 0 6 0 C6.84584462 9.11632533 5.47328601 14.63712715 0 22 C-0.80652282 19.68762762 -1.19816779 18.48707558 -0.2578125 16.17578125 C0.30292969 15.25345703 0.30292969 15.25345703 0.875 14.3125 C3.26128917 9.94312224 3.77208222 5.92302411 4 1 C2.68 0.67 1.36 0.34 0 0 Z " fill="#BCBCCF" transform="translate(408,185)"/>
<path d="M0 0 C0.99 0 1.98 0 3 0 C2.83923477 0.5692218 2.67846954 1.1384436 2.51283264 1.72491455 C1.99640479 4.01594948 1.84295704 6.05637245 1.79467773 8.40136719 C1.7647599 9.6922525 1.7647599 9.6922525 1.73423767 11.00921631 C1.70916893 12.38910736 1.70916893 12.38910736 1.68359375 13.796875 C1.66281265 14.74564514 1.64203156 15.69441528 1.62062073 16.67193604 C1.55532066 19.69788482 1.49633112 22.7239192 1.4375 25.75 C1.3942962 27.80339421 1.35068131 29.85677982 1.30664062 31.91015625 C1.19965927 36.9400168 1.09833677 41.96996332 1 47 C0.67 47 0.34 47 0 47 C0 31.49 0 15.98 0 0 Z " fill="#F4F4FE" transform="translate(590,186)"/>
<path d="M0 0 C0.66 0 1.32 0 2 0 C1.96744792 2.01822917 1.93489583 4.03645833 1.90234375 6.0546875 C1.87350758 8.08185404 1.87350758 8.08185404 3 10 C3.039992 11.99960012 3.04346799 14.00047242 3 16 C2.34 15.67 1.68 15.34 1 15 C0.67 16.98 0.34 18.96 0 21 C0.99 21.33 1.98 21.66 3 22 C1.35 22 -0.3 22 -2 22 C-1.34 14.74 -0.68 7.48 0 0 Z " fill="#D0CFDD" transform="translate(552,201)"/>
<path d="M0 0 C2 3 2 3 2.54296875 5.15625 C3.33308063 8.02938411 4.03375862 9.72930834 6 12 C10.94206862 13.72247994 15.81104941 14.43850908 21 15 C21 15.33 21 15.66 21 16 C18.93816367 16.08150744 16.87538651 16.1394194 14.8125 16.1875 C13.08966797 16.23970703 13.08966797 16.23970703 11.33203125 16.29296875 C7.65237794 15.96943534 5.88024158 15.27847682 3 13 C0.58379505 9.05820489 -0.43159457 4.60367546 0 0 Z " fill="#3D3A87" transform="translate(100,257)"/>
<path d="M0 0 C0.33 0 0.66 0 1 0 C1 5.28 1 10.56 1 16 C1.66 16 2.32 16 3 16 C3 19.63 3 23.26 3 27 C3.66 27.33 4.32 27.66 5 28 C4.67 28.33 4.34 28.66 4 29 C3.95919217 30.99958364 3.95745644 33.00045254 4 35 C-2.14938942 25.77591587 -0.21858714 10.71076975 0 0 Z " fill="#423F92" transform="translate(38,181)"/>
<path d="M0 0 C-0.33 0.99 -0.66 1.98 -1 3 C-3.0625 3.6875 -3.0625 3.6875 -5 4 C-5 4.66 -5 5.32 -5 6 C-6.98 6.66 -8.96 7.32 -11 8 C-10.67 7.01 -10.34 6.02 -10 5 C-9.34 4.67 -8.68 4.34 -8 4 C-10.64 4.33 -13.28 4.66 -16 5 C-15 3 -15 3 -12.890625 2.1484375 C-12.01921875 1.89320313 -11.1478125 1.63796875 -10.25 1.375 C-8.95835937 0.98441406 -8.95835937 0.98441406 -7.640625 0.5859375 C-5.00270994 0.00060132 -2.69198424 -0.10651736 0 0 Z " fill="#AB92F4" transform="translate(227,155)"/>
<path d="M0 0 C0.8971875 0.309375 0.8971875 0.309375 1.8125 0.625 C1.22082031 1.01171875 0.62914063 1.3984375 0.01953125 1.796875 C-5.85021253 5.66535214 -11.28956551 9.54566053 -16.1875 14.625 C-16.5175 13.305 -16.8475 11.985 -17.1875 10.625 C-16.5275 10.625 -15.8675 10.625 -15.1875 10.625 C-15.1875 9.965 -15.1875 9.305 -15.1875 8.625 C-13.5375 8.295 -11.8875 7.965 -10.1875 7.625 C-10.1875 6.305 -10.1875 4.985 -10.1875 3.625 C-8.5375 3.625 -6.8875 3.625 -5.1875 3.625 C-5.1875 2.965 -5.1875 2.305 -5.1875 1.625 C-2.1875 -0.375 -2.1875 -0.375 0 0 Z " fill="#413D90" transform="translate(87.1875,120.375)"/>
<path d="M0 0 C-0.1875 1.875 -0.1875 1.875 -1 4 C-3.375 5.3125 -3.375 5.3125 -6 6 C-6.99 5.67 -7.98 5.34 -9 5 C-9 4.34 -9 3.68 -9 3 C-8.34 3 -7.68 3 -7 3 C-7 2.34 -7 1.68 -7 1 C-4.53721199 -0.231394 -2.7204945 -0.07159196 0 0 Z M-9 5 C-10.98 5.99 -12.96 6.98 -15 8 C-15 7.01 -15 6.02 -15 5 C-12 4 -12 4 -9 5 Z M-18 8 C-17.01 8.33 -16.02 8.66 -15 9 C-15.99 9.33 -16.98 9.66 -18 10 C-18 9.34 -18 8.68 -18 8 Z " fill="#8585ED" transform="translate(229,158)"/>
<path d="M0 0 C1.00869141 0.00902344 2.01738281 0.01804687 3.05664062 0.02734375 C5.51718457 0.05066644 7.97720896 0.08339237 10.4375 0.125 C10.4375 0.455 10.4375 0.785 10.4375 1.125 C2.5175 1.455 -5.4025 1.785 -13.5625 2.125 C-13.5625 2.785 -13.5625 3.445 -13.5625 4.125 C-16.8625 4.125 -20.1625 4.125 -23.5625 4.125 C-16.53991376 -0.55672416 -8.16687524 -0.14052863 0 0 Z " fill="#32317D" transform="translate(132.5625,95.875)"/>
<path d="M0 0 C0.33 0 0.66 0 1 0 C1.06058594 1.18335938 1.12117188 2.36671875 1.18359375 3.5859375 C1.61253139 11.7486984 2.0825965 19.87442613 3 28 C3.66 28 4.32 28 5 28 C5 29.32 5 30.64 5 32 C4.01 32 3.02 32 2 32 C-0.13120646 25.08616486 -0.23698014 18.70118424 -0.125 11.5 C-0.11597656 10.39140625 -0.10695312 9.2828125 -0.09765625 8.140625 C-0.07426167 5.42685408 -0.04148175 2.71354455 0 0 Z " fill="#4F4AA1" transform="translate(48,184)"/>
<path d="M0 0 C4.95 1.98 4.95 1.98 10 4 C7.35491041 6.64508959 5.70028236 6.78233633 2 7 C-0.875 5.5625 -0.875 5.5625 -3 4 C-2.01 3.67 -1.02 3.34 0 3 C0 2.01 0 1.02 0 0 Z " fill="#5E57C0" transform="translate(109,272)"/>
<path d="M0 0 C0.33 1.32 0.66 2.64 1 4 C-2.07289264 6.1217592 -4.9519018 7.97640465 -8.3125 9.625 C-11.10676626 10.71972652 -11.10676626 10.71972652 -12 13 C-13.32 12.67 -14.64 12.34 -16 12 C-10.66666667 8 -5.33333333 4 0 0 Z " fill="#434191" transform="translate(189,249)"/>
<path d="M0 0 C1.85625 0.0309375 1.85625 0.0309375 3.75 0.0625 C3.42 0.7225 3.09 1.3825 2.75 2.0625 C0.74609375 2.40625 0.74609375 2.40625 -1.8125 2.5625 C-5.14914958 2.82391841 -8.21505745 3.22145238 -11.4375 4.125 C-15.32770449 5.08160766 -18.28819789 5.22757509 -22.25 5.0625 C-19.23051571 2.44840944 -17.22051372 1.66749927 -13.25 1.4375 C-9.69239915 1.21238639 -9.69239915 1.21238639 -6.203125 0.54296875 C-4.06423557 0.01680195 -2.19836683 -0.03663945 0 0 Z " fill="#C8B2F6" transform="translate(157.25,166.9375)"/>
<path d="M0 0 C-5.29653879 0.93959624 -10.08668517 0.98841115 -15.4375 0.5625 C-16.16904297 0.51029297 -16.90058594 0.45808594 -17.65429688 0.40429688 C-19.43668622 0.27615124 -21.2184257 0.1390184 -23 0 C-23 -0.33 -23 -0.66 -23 -1 C-6.02602032 -3.56211014 -6.02602032 -3.56211014 0 0 Z " fill="#A98DC5" transform="translate(125,162)"/>
<path d="M0 0 C-0.33 0.99 -0.66 1.98 -1 3 C-4.5625 4.6875 -4.5625 4.6875 -8 6 C-8 6.66 -8 7.32 -8 8 C-10.64 8 -13.28 8 -16 8 C-13.62999752 5.34154327 -11.18015846 3.88838209 -8 2.3125 C-6.700625 1.65701172 -6.700625 1.65701172 -5.375 0.98828125 C-3 0 -3 0 0 0 Z " fill="#3F3C91" transform="translate(100,102)"/>
<path d="M0 0 C0.78375 0.04125 1.5675 0.0825 2.375 0.125 C0.53957453 3.79585094 -4.24235065 4.46167251 -7.9375 5.8125 C-9.23977539 6.31233398 -9.23977539 6.31233398 -10.56835938 6.82226562 C-11.40818359 7.13228516 -12.24800781 7.44230469 -13.11328125 7.76171875 C-14.26630737 8.19037231 -14.26630737 8.19037231 -15.44262695 8.62768555 C-17.88159722 9.18347282 -19.28161696 8.92322213 -21.625 8.125 C-19.645 7.795 -17.665 7.465 -15.625 7.125 C-15.625 6.465 -15.625 5.805 -15.625 5.125 C-14.85414063 4.93164062 -14.08328125 4.73828125 -13.2890625 4.5390625 C-12.28617188 4.27867187 -11.28328125 4.01828125 -10.25 3.75 C-9.25226563 3.49476563 -8.25453125 3.23953125 -7.2265625 2.9765625 C-4.07171719 1.94389542 -3.34932459 0.15949165 0 0 Z " fill="#3D3A88" transform="translate(172.625,272.875)"/>
<path d="M0 0 C3.68743234 -0.05850924 7.3747437 -0.09376673 11.0625 -0.125 C12.10083984 -0.14175781 13.13917969 -0.15851563 14.20898438 -0.17578125 C19.88711284 -0.21183286 24.64391054 0.07028834 30 2 C30 2.33 30 2.66 30 3 C23.59054054 4.25675676 23.59054054 4.25675676 20.84375 3.0625 C16.82522236 1.56107209 12.94568661 1.53632041 8.6875 1.375 C7.85154297 1.33632812 7.01558594 1.29765625 6.15429688 1.2578125 C4.10320741 1.16404841 2.05163485 1.08095755 0 1 C0 0.67 0 0.34 0 0 Z " fill="#5651AC" transform="translate(125,97)"/>
<path d="M0 0 C3.3 0.33 6.6 0.66 10 1 C10.33 2.65 10.66 4.3 11 6 C11.66 6 12.32 6 13 6 C12.67 6.66 12.34 7.32 12 8 C11.34 7.67 10.68 7.34 10 7 C9.375 4.9375 9.375 4.9375 9 3 C6.03 2.505 6.03 2.505 3 2 C2.67 3.65 2.34 5.3 2 7 C-0.97 7 -3.94 7 -7 7 C-7 6.67 -7 6.34 -7 6 C-4.36 6 -1.72 6 1 6 C0.67 4.02 0.34 2.04 0 0 Z " fill="#ADAEC4" transform="translate(547,230)"/>
<path d="M0 0 C0.66 0.33 1.32 0.66 2 1 C-2.12324647 5.25209792 -6.51282966 9.13635705 -11 13 C-11.66 11.68 -12.32 10.36 -13 9 C-10.92446352 8.4465236 -9.15634036 8 -7 8 C-7 7.34 -7 6.68 -7 6 C-6.34 6 -5.68 6 -5 6 C-5 5.01 -5 4.02 -5 3 C-2.625 1.25 -2.625 1.25 0 0 Z " fill="#7673C5" transform="translate(215,171)"/>
<path d="M0 0 C3.60174382 2.40116254 4.0255571 3.96264767 5.5625 7.9375 C6.86201943 11.26928969 8.01059082 14.01588623 10 17 C9.34 17.66 8.68 18.32 8 19 C6.65929682 16.39939496 5.32726646 13.79495084 4 11.1875 C3.6184375 10.44951172 3.236875 9.71152344 2.84375 8.95117188 C2.4828125 8.23896484 2.121875 7.52675781 1.75 6.79296875 C1.41484375 6.1383667 1.0796875 5.48376465 0.734375 4.80932617 C0 3 0 3 0 0 Z " fill="#403B89" transform="translate(42,216)"/>
<path d="M0 0 C-2 2 -2 2 -5 3 C-4.67 4.65 -4.34 6.3 -4 8 C-7.25543229 7.65120368 -8.01873107 6.97866739 -10.25 4.4375 C-11.11625 3.2309375 -11.11625 3.2309375 -12 2 C-7.8803623 0.70756464 -4.33168317 -0.26252625 0 0 Z " fill="#F1DCFE" transform="translate(93,182)"/>
<path d="M0 0 C0.33 0 0.66 0 1 0 C1.33 3.3 1.66 6.6 2 10 C1.67 10 1.34 10 1 10 C0.67 14.95 0.34 19.9 0 25 C-0.33 25 -0.66 25 -1 25 C-1.02908357 21.58335127 -1.04682691 18.1667345 -1.0625 14.75 C-1.07087891 13.78191406 -1.07925781 12.81382812 -1.08789062 11.81640625 C-1.09111328 10.88183594 -1.09433594 9.94726562 -1.09765625 8.984375 C-1.10289307 8.12553711 -1.10812988 7.26669922 -1.11352539 6.38183594 C-1.00539986 4.11329256 -0.63582423 2.17368285 0 0 Z " fill="#BEBEC9" transform="translate(462,185)"/>
<path d="M0 0 C8.57142857 -0.28571429 8.57142857 -0.28571429 12 2 C11.67 2.66 11.34 3.32 11 4 C10.34 4 9.68 4 9 4 C8.67 4.66 8.34 5.32 8 6 C7.01 5.01 6.02 4.02 5 3 C4.01 3.495 4.01 3.495 3 4 C3 3.34 3 2.68 3 2 C2.01 2 1.02 2 0 2 C0 1.34 0 0.68 0 0 Z " fill="#E7B1F5" transform="translate(102,162)"/>
<path d="M0 0 C0 0.66 0 1.32 0 2 C-1.32 2.33 -2.64 2.66 -4 3 C-4.10634766 3.93585938 -4.10634766 3.93585938 -4.21484375 4.890625 C-5 7 -5 7 -7.06640625 8.046875 C-7.89011719 8.27890625 -8.71382813 8.5109375 -9.5625 8.75 C-10.80193359 9.11351563 -10.80193359 9.11351563 -12.06640625 9.484375 C-13.02353516 9.73960938 -13.02353516 9.73960938 -14 10 C-4.57142857 0 -4.57142857 0 0 0 Z " fill="#413C8E" transform="translate(84,110)"/>
<path d="M0 0 C0.66 0 1.32 0 2 0 C2 0.66 2 1.32 2 2 C2.66 2.33 3.32 2.66 4 3 C-5.41002278 8.37129841 -5.41002278 8.37129841 -10 10 C-10 9.34 -10 8.68 -10 8 C-9.01 8 -8.02 8 -7 8 C-6.67 7.01 -6.34 6.02 -6 5 C-5.01 5 -4.02 5 -3 5 C-2.690625 4.360625 -2.38125 3.72125 -2.0625 3.0625 C-1 1 -1 1 0 0 Z " fill="#A975C4" transform="translate(114,215)"/>
<path d="M0 0 C0.125 5.75 0.125 5.75 -1 8 C-1.66 8 -2.32 8 -3 8 C-3 7.34 -3 6.68 -3 6 C-3.66 6 -4.32 6 -5 6 C-5.66 4.35 -6.32 2.7 -7 1 C-1.125 0 -1.125 0 0 0 Z " fill="#454492" transform="translate(58,234)"/>
<path d="M0 0 C3.96 0 7.92 0 12 0 C12 0.33 12 0.66 12 1 C7.545 1.495 7.545 1.495 3 2 C3 4.64 3 7.28 3 10 C2.01 10.495 2.01 10.495 1 11 C0.67 7.37 0.34 3.74 0 0 Z " fill="#A0A0B5" transform="translate(432,185)"/>
<path d="M0 0 C1.98 0.66 3.96 1.32 6 2 C6.125 5.375 6.125 5.375 6 9 C5.34 9.66 4.68 10.32 4 11 C0.71428571 3.57142857 0.71428571 3.57142857 0 0 Z " fill="#779CC4" transform="translate(91,213)"/>
<path d="M0 0 C0.66 0 1.32 0 2 0 C0.58707905 4.8274799 -1.42974154 8.7162359 -4 13 C-4.33 13 -4.66 13 -5 13 C-4.25 6.375 -4.25 6.375 -2 3 C-1.34 3 -0.68 3 0 3 C0 2.01 0 1.02 0 0 Z " fill="#C1C1CE" transform="translate(405,207)"/>
<path d="M0 0 C2.61109045 3.82959933 1.86230768 6.8261539 1.125 11.25 C0.92132812 12.51328125 0.71765625 13.7765625 0.5078125 15.078125 C0.34023438 16.04234375 0.17265625 17.0065625 0 18 C-0.66 18 -1.32 18 -2 18 C-1.42085333 11.98673249 -0.77662055 5.99107278 0 0 Z " fill="#B2B1C8" transform="translate(545,189)"/>
<path d="M0 0 C0.66 0.33 1.32 0.66 2 1 C1.67 3.31 1.34 5.62 1 8 C-0.32 8.33 -1.64 8.66 -3 9 C-3 6.66666667 -3 4.33333333 -3 2 C-2.01 2 -1.02 2 0 2 C0 1.34 0 0.68 0 0 Z " fill="#5F58C4" transform="translate(92,108)"/>
<path d="M0 0 C0.66 0 1.32 0 2 0 C0.81543972 3.1588274 -0.53600038 6.21274705 -2 9.25 C-2.495 10.27867187 -2.495 10.27867187 -3 11.328125 C-4 13 -4 13 -6 14 C-6.1875 11.6875 -6.1875 11.6875 -6 9 C-4.6875 7.5625 -4.6875 7.5625 -3 6 C-1.95377125 4.02379014 -0.94560065 2.0262871 0 0 Z " fill="#42408C" transform="translate(216,227)"/>
<path d="M0 0 C1.32 0 2.64 0 4 0 C4 0.66 4 1.32 4 2 C5.98 2.66 7.96 3.32 10 4 C10 4.99 10 5.98 10 7 C10.99 7.33 11.98 7.66 13 8 C12.34 8.66 11.68 9.32 11 10 C9.16375669 8.52444734 7.3310715 7.04446569 5.5 5.5625 C4.4790625 4.73878906 3.458125 3.91507813 2.40625 3.06640625 C1.6121875 2.38449219 0.818125 1.70257813 0 1 C0 0.67 0 0.34 0 0 Z " fill="#B285C5" transform="translate(125,224)"/>
<path d="M0 0 C1 2 1 2 0.5 4.75 C-0.02244525 8.14589415 0.28484105 10.66259157 1 14 C0.34 14 -0.32 14 -1 14 C-4.23294118 6.99529412 -4.23294118 6.99529412 -3.3125 3.0625 C-2 1 -2 1 0 0 Z " fill="#C8C7D5" transform="translate(316,206)"/>
<path d="M0 0 C2.31 1.98 4.62 3.96 7 6 C7.33 5.01 7.66 4.02 8 3 C7.67 5.31 7.34 7.62 7 10 C6.34 9.67 5.68 9.34 5 9 C5 8.34 5 7.68 5 7 C3.68 6.67 2.36 6.34 1 6 C0.67 4.02 0.34 2.04 0 0 Z " fill="#629BF4" transform="translate(90,200)"/>
<path d="M0 0 C0.99 0.66 1.98 1.32 3 2 C0.03 4.64 -2.94 7.28 -6 10 C-6.33 8.68 -6.66 7.36 -7 6 C-2.25 2 -2.25 2 0 2 C0 1.34 0 0.68 0 0 Z " fill="#746BBB" transform="translate(193,189)"/>
<path d="M0 0 C0.66 0.99 1.32 1.98 2 3 C1.07882446 6.93593186 -0.24656072 10.01710745 -3 13 C-3.66 13 -4.32 13 -5 13 C-4.54554036 11.58208592 -4.08625056 10.16571954 -3.625 8.75 C-3.24214844 7.56664062 -3.24214844 7.56664062 -2.8515625 6.359375 C-2.04826333 4.13372042 -1.10288338 2.09068328 0 0 Z " fill="#423F92" transform="translate(48,146)"/>
<path d="M0 0 C2.0859151 0.42502027 4.16867991 0.86552046 6.25 1.3125 C7.41015625 1.55613281 8.5703125 1.79976563 9.765625 2.05078125 C12.85368022 2.95705833 14.61523474 3.8926703 17 6 C10.81839396 5.46246904 5.673142 3.45417612 0 1 C0 0.67 0 0.34 0 0 Z " fill="#393685" transform="translate(100,276)"/>
<path d="M0 0 C-2.89763058 3.32690918 -4.67616265 4.3514244 -9 5 C-9.721875 5.37125 -10.44375 5.7425 -11.1875 6.125 C-11.785625 6.41375 -12.38375 6.7025 -13 7 C-13.66 6.67 -14.32 6.34 -15 6 C-13.07010782 4.80017556 -11.13080772 3.61547182 -9.1875 2.4375 C-8.10855469 1.77621094 -7.02960938 1.11492187 -5.91796875 0.43359375 C-3 -1 -3 -1 0 0 Z " fill="#E9B5F1" transform="translate(147,201)"/>
<path d="M0 0 C-3.46488302 3.18769237 -6.41209831 3.44628773 -11 4 C-13.01416562 4.62256028 -15.02015519 5.27566653 -17 6 C-16.67 5.01 -16.34 4.02 -16 3 C-10.95526836 0.691394 -5.53728165 -0.43715381 0 0 Z " fill="#C1A0F4" transform="translate(200,165)"/>
<path d="M0 0 C-4.81089378 3.20726252 -8.49814236 3.11575794 -14.25 3.0625 C-15.51328125 3.05347656 -16.7765625 3.04445312 -18.078125 3.03515625 C-19.04234375 3.02355469 -20.0065625 3.01195312 -21 3 C-21 2.67 -21 2.34 -21 2 C-13.94546999 0.79556805 -7.16562789 -0.28100502 0 0 Z " fill="#7C669E" transform="translate(156,156)"/>
<path d="M0 0 C1 3 1 3 0.3125 5.625 C-1 8 -1 8 -3.125 8.8125 C-3.74375 8.874375 -4.3625 8.93625 -5 9 C-5 9.99 -5 10.98 -5 12 C-5.66 11.67 -6.32 11.34 -7 11 C-4.84921278 7.14341602 -2.76544722 3.45680903 0 0 Z " fill="#45418E" transform="translate(56,134)"/>
<path d="M0 0 C0.28875 0.639375 0.5775 1.27875 0.875 1.9375 C1.82823451 4.15206079 1.82823451 4.15206079 4 5 C3.34 5 2.68 5 2 5 C2 6.98 2 8.96 2 11 C1.01 10.67 0.02 10.34 -1 10 C-1.125 3.375 -1.125 3.375 0 0 Z " fill="#D7D8E4" transform="translate(384,226)"/>
<path d="M0 0 C0.33 0 0.66 0 1 0 C1.05437607 1.58294782 1.09296271 3.16644256 1.125 4.75 C1.14820313 5.63171875 1.17140625 6.5134375 1.1953125 7.421875 C0.99139502 10.1135858 0.36551721 11.69904974 -1 14 C-1.66 14 -2.32 14 -3 14 C-2.68872484 12.41642541 -2.37592711 10.83315007 -2.0625 9.25 C-1.80146484 7.92742187 -1.80146484 7.92742187 -1.53515625 6.578125 C-1.07631512 4.36764947 -0.56663926 2.18487932 0 0 Z " fill="#3F3C88" transform="translate(212,206)"/>
<path d="M0 0 C1.32 0.33 2.64 0.66 4 1 C3.38125 1.2475 2.7625 1.495 2.125 1.75 C-0.4399156 3.25877388 -0.78074157 4.33287219 -2 7 C-3.3050581 8.68889872 -4.63360658 10.3603279 -6 12 C-6 10.68 -6 9.36 -6 8 C-5.34 8 -4.68 8 -4 8 C-3.8453125 7.13375 -3.8453125 7.13375 -3.6875 6.25 C-2.90207202 3.67950842 -1.69495803 2.06342716 0 0 Z " fill="#38377F" transform="translate(71,202)"/>
<path d="M0 0 C-0.33 1.32 -0.66 2.64 -1 4 C-2.32 4.33 -3.64 4.66 -5 5 C-4.67 4.01 -4.34 3.02 -4 2 C-6.31 2 -8.62 2 -11 2 C-6.80312837 -0.79791442 -4.79748656 -1.16695619 0 0 Z " fill="#34358B" transform="translate(80,196)"/>
<path d="M0 0 C-1.77945087 4.04420651 -4.39529673 7.46078487 -7 11 C-8 8 -8 8 -7 5 C-6.34 5 -5.68 5 -5 5 C-4.87625 4.360625 -4.7525 3.72125 -4.625 3.0625 C-4.41875 2.381875 -4.2125 1.70125 -4 1 C-2 0 -2 0 0 0 Z " fill="#3F3C8E" transform="translate(70,135)"/>
<path d="M0 0 C1.65 0 3.3 0 5 0 C5 0.66 5 1.32 5 2 C5.66 2 6.32 2 7 2 C7 2.66 7 3.32 7 4 C7.99 3.67 8.98 3.34 10 3 C10.99 4.485 10.99 4.485 12 6 C10.37181054 5.77169299 8.7473651 5.51656424 7.125 5.25 C6.22007813 5.11078125 5.31515625 4.9715625 4.3828125 4.828125 C2 4 2 4 0.6796875 1.921875 C0.45539063 1.28765625 0.23109375 0.6534375 0 0 Z " fill="#534EA9" transform="translate(96,272)"/>
<path d="M0 0 C0.99 0.33 1.98 0.66 3 1 C1.25 4.875 1.25 4.875 -1 6 C-2.13350534 8.01669827 -2.13350534 8.01669827 -3 10 C-3.66 9.34 -4.32 8.68 -5 8 C-4.01 6.02 -3.02 4.04 -2 2 C-1.34 2 -0.68 2 0 2 C0 1.34 0 0.68 0 0 Z " fill="#DCDBE5" transform="translate(507,200)"/>
<path d="M0 0 C0.99 0 1.98 0 3 0 C3 0.66 3 1.32 3 2 C2.01 2.66 1.02 3.32 0 4 C-0.38411275 6.609621 -0.60293197 9.0058074 -0.6875 11.625 C-0.72166016 12.33140625 -0.75582031 13.0378125 -0.79101562 13.765625 C-0.87351308 15.50985688 -0.93843335 17.25490395 -1 19 C-1.33 19 -1.66 19 -2 19 C-2.05380578 16.20807795 -2.09357669 13.4171859 -2.125 10.625 C-2.14175781 9.8309375 -2.15851563 9.036875 -2.17578125 8.21875 C-2.19335473 6.14507985 -2.10335168 4.07116759 -2 2 C-1.34 1.34 -0.68 0.68 0 0 Z " fill="#5A55B2" transform="translate(217,181)"/>
<path d="M0 0 C0.66 0.33 1.32 0.66 2 1 C1.0625 3 1.0625 3 -1 5 C-4.02534949 5.36475845 -6.96663814 5.22893297 -10 5 C-6.76527494 2.84351662 -3.62848922 1.38542316 0 0 Z " fill="#3F3C88" transform="translate(167,264)"/>
<path d="M0 0 C1.32 0.33 2.64 0.66 4 1 C0.535 3.97 0.535 3.97 -3 7 C-5.475 6.01 -5.475 6.01 -8 5 C-4.25 3.875 -4.25 3.875 -2 5 C-1.34 3.35 -0.68 1.7 0 0 Z " fill="#A57FBD" transform="translate(145,230)"/>
<path d="M0 0 C-3.3730619 2.96829447 -6.62968884 4.06350475 -11 5 C-13.21875 4.546875 -13.21875 4.546875 -15 4 C-13.06767179 3.13419713 -11.12892806 2.28270059 -9.1875 1.4375 C-8.10855469 0.96183594 -7.02960938 0.48617187 -5.91796875 -0.00390625 C-3 -1 -3 -1 0 0 Z " fill="#BCB3FB" transform="translate(187,167)"/>
<path d="M0 0 C-0.639375 0.268125 -1.27875 0.53625 -1.9375 0.8125 C-4.33131686 1.88667752 -4.33131686 1.88667752 -5 5 C-5.99 5.33 -6.98 5.66 -8 6 C-8 4.35 -8 2.7 -8 1 C-4.93251126 -0.86240388 -3.40254489 -1.2151946 0 0 Z " fill="#5A63B5" transform="translate(228,163)"/>
<path d="M0 0 C0.66 0 1.32 0 2 0 C0.58707905 4.8274799 -1.42974154 8.7162359 -4 13 C-4.6875 11.375 -4.6875 11.375 -5 9 C-3.5625 5.75 -3.5625 5.75 -2 3 C-1.34 3 -0.68 3 0 3 C0 2.01 0 1.02 0 0 Z " fill="#3F3B82" transform="translate(60,146)"/>
<path d="M0 0 C3.26460973 1.80412643 4.88929795 2.83394693 7 6 C7.99 6.33 8.98 6.66 10 7 C10 7.66 10 8.32 10 9 C7.33289346 8.84759391 5.5494129 8.50635081 3.5546875 6.66796875 C0 2.49375 0 2.49375 0 0 Z " fill="#3F3D8C" transform="translate(195,137)"/>
<path d="M0 0 C0.66 0 1.32 0 2 0 C2.33 3.3 2.66 6.6 3 10 C1.35 10.66 -0.3 11.32 -2 12 C-1.67 11.34 -1.34 10.68 -1 10 C-0.77377919 8.29636178 -0.59111527 6.58671299 -0.4375 4.875 C-0.35371094 3.96492187 -0.26992187 3.05484375 -0.18359375 2.1171875 C-0.12300781 1.41851562 -0.06242187 0.71984375 0 0 Z " fill="#E4A1E8" transform="translate(100,214)"/>
<path d="M0 0 C1.875 0.125 1.875 0.125 4 1 C5.375 3.875 5.375 3.875 6 7 C5.01 8.485 5.01 8.485 4 10 C3.32845067 8.71086513 2.66291141 7.41859796 2 6.125 C1.62875 5.40570313 1.2575 4.68640625 0.875 3.9453125 C0 2 0 2 0 0 Z " fill="#4C77BF" transform="translate(80,187)"/>
<path d="M0 0 C1.32 0.33 2.64 0.66 4 1 C3.01 1.33 2.02 1.66 1 2 C0.26676204 4.01508358 0.26676204 4.01508358 0 6 C-1.32 6.33 -2.64 6.66 -4 7 C-4 7.66 -4 8.32 -4 9 C-4.99 9 -5.98 9 -7 9 C-5.89485234 6.78970467 -4.5584876 5.23741129 -2.9375 3.375 C-2.38964844 2.74335938 -1.84179688 2.11171875 -1.27734375 1.4609375 C-0.64505859 0.73777344 -0.64505859 0.73777344 0 0 Z " fill="#AAAAB9" transform="translate(507,185)"/>
<path d="M0 0 C0.33 0 0.66 0 1 0 C1 2.97 1 5.94 1 9 C2.65 9 4.3 9 6 9 C3.36095629 10.41377341 0.92879371 11.37240135 -2 12 C-2 11.01 -2 10.02 -2 9 C-1.34 9 -0.68 9 0 9 C0 6.03 0 3.06 0 0 Z " fill="#A2A0AE" transform="translate(297,196)"/>
<path d="M0 0 C-1.8719144 2.39189062 -3.02646956 3.00772029 -6 3.875 C-9 4 -9 4 -10.875 2.5625 C-11.431875 1.7890625 -11.431875 1.7890625 -12 1 C-7.93631321 0.22596442 -4.13574827 -0.0984702 0 0 Z " fill="#E4ABF0" transform="translate(74,166)"/>
<path d="M0 0 C-1.45255699 3.82946843 -3.42895561 5.12050295 -7 7 C-6.6875 4.625 -6.6875 4.625 -6 2 C-3 0 -3 0 0 0 Z " fill="#5E65C0" transform="translate(235,155)"/>
<path d="M0 0 C1.16144531 0.00902344 2.32289063 0.01804688 3.51953125 0.02734375 C4.39996094 0.03894531 5.28039062 0.05054688 6.1875 0.0625 C6.1875 0.3925 6.1875 0.7225 6.1875 1.0625 C4.31489946 1.42914185 2.43925307 1.78024366 0.5625 2.125 C-0.48164063 2.32222656 -1.52578125 2.51945313 -2.6015625 2.72265625 C-5.91727629 3.07358946 -8.56651145 2.7594615 -11.8125 2.0625 C-11.8125 1.7325 -11.8125 1.4025 -11.8125 1.0625 C-7.81454108 0.10630267 -4.10446078 -0.0414592 0 0 Z " fill="#6A65B8" transform="translate(219.8125,149.9375)"/>
<path d="M0 0 C1.32 0 2.64 0 4 0 C2.25 4.875 2.25 4.875 0 6 C-0.66 5.34 -1.32 4.68 -2 4 C-1.34 2.68 -0.68 1.36 0 0 Z M-2 6 C0 7 0 7 0 7 Z " fill="#5E58C2" transform="translate(200,238)"/>
<path d="M0 0 C0.33 0 0.66 0 1 0 C1.32613618 4.67461851 0.70582788 7.16674383 -2 11 C-2.66 10.67 -3.32 10.34 -4 10 C-2.8905928 6.51329166 -1.73662334 3.22515763 0 0 Z " fill="#BDBDD2" transform="translate(389,216)"/>
<path d="M0 0 C0 1.32 0 2.64 0 4 C-0.66 4 -1.32 4 -2 4 C-2.33 4.99 -2.66 5.98 -3 7 C-4.66666667 5.33333333 -6.33333333 3.66666667 -8 2 C-2.25 0 -2.25 0 0 0 Z " fill="#EEB0F1" transform="translate(125,213)"/>
<path d="M0 0 C0 3.46877176 -0.61849799 5.82254537 -2 9 C-4.125 9.875 -4.125 9.875 -6 10 C-4.6302836 6.00499382 -2.74277578 3.19990508 0 0 Z " fill="#BDBDD1" transform="translate(401,196)"/>
<path d="M0 0 C0.66 0 1.32 0 2 0 C5.39366878 5.37330889 5.32712342 9.86946489 5 16 C4.67 16 4.34 16 4 16 C4 13.03 4 10.06 4 7 C3.34 7 2.68 7 2 7 C1.34 4.69 0.68 2.38 0 0 Z " fill="#AAAAC2" transform="translate(313,190)"/>
<path d="M0 0 C-2.6860286 1.79068573 -4.6626589 2.66055791 -7.6875 3.625 C-8.49574219 3.88539062 -9.30398437 4.14578125 -10.13671875 4.4140625 C-10.75160156 4.60742188 -11.36648437 4.80078125 -12 5 C-11 2 -11 2 -8.8125 0.8125 C-5.74609689 -0.07334979 -3.17561845 -0.14770318 0 0 Z " fill="#3D3B89" transform="translate(111,110)"/>
<path d="M0 0 C0.85448418 2.39255571 1.15624337 3.583351 0.25 6 C-1.06034273 8.09654837 -2.47286435 10.05637281 -4 12 C-4.66 11.67 -5.32 11.34 -6 11 C-5.65066406 10.37351563 -5.30132812 9.74703125 -4.94140625 9.1015625 C-4.48636719 8.28429687 -4.03132812 7.46703125 -3.5625 6.625 C-3.11003906 5.81289062 -2.65757812 5.00078125 -2.19140625 4.1640625 C-1.4349464 2.79003378 -0.70145369 1.40290739 0 0 Z " fill="#353383" transform="translate(206,224)"/>
<path d="M0 0 C4.62 0 9.24 0 14 0 C14 1.32 14 2.64 14 4 C13.01 3.34 12.02 2.68 11 2 C8.26127045 1.54227937 8.26127045 1.54227937 5.3125 1.375 C4.31863281 1.30023438 3.32476562 1.22546875 2.30078125 1.1484375 C1.54152344 1.09945312 0.78226562 1.05046875 0 1 C0 0.67 0 0.34 0 0 Z " fill="#8E8AA4" transform="translate(350,205)"/>
<path d="M0 0 C0.66 0.66 1.32 1.32 2 2 C-0.97 4.475 -0.97 4.475 -4 7 C-4.33 5.68 -4.66 4.36 -5 3 C-3.35 2.01 -1.7 1.02 0 0 Z " fill="#9982CD" transform="translate(183,198)"/>
<path d="M0 0 C1.32 0.33 2.64 0.66 4 1 C3.67 2.98 3.34 4.96 3 7 C2.01 7.33 1.02 7.66 0 8 C0 5.36 0 2.72 0 0 Z " fill="#BEC1CB" transform="translate(305,197)"/>
<path d="M0 0 C-0.33 0.99 -0.66 1.98 -1 3 C-2.32 3 -3.64 3 -5 3 C-7.00401011 3.30830925 -9.00511766 3.63729412 -11 4 C-11.33 3.34 -11.66 2.68 -12 2 C-7.8794254 0.00214565 -4.54805635 -0.17835515 0 0 Z " fill="#BB9FEA" transform="translate(163,156)"/>
<path d="M0 0 C5.37550458 -0.21502018 9.98657863 -0.25603962 15 2 C15.33 2.66 15.66 3.32 16 4 C15.29488281 3.85691406 14.58976563 3.71382813 13.86328125 3.56640625 C10.97588399 2.99522944 8.08390614 2.46094689 5.1875 1.9375 C4.21167969 1.76089844 3.23585937 1.58429688 2.23046875 1.40234375 C1.49441406 1.26957031 0.75835937 1.13679688 0 1 C0 0.67 0 0.34 0 0 Z " fill="#383784" transform="translate(145,109)"/>
<path d="M0 0 C0.75 1.625 0.75 1.625 1 4 C-0.875 7.25 -0.875 7.25 -3 10 C-3.33 10 -3.66 10 -4 10 C-4 8.35 -4 6.7 -4 5 C-3.34 5 -2.68 5 -2 5 C-1.7834375 4.0409375 -1.7834375 4.0409375 -1.5625 3.0625 C-1 1 -1 1 0 0 Z " fill="#A5A6BB" transform="translate(462,225)"/>
<path d="M0 0 C1.74965358 -0.05429959 3.49979787 -0.09292823 5.25 -0.125 C6.22453125 -0.14820313 7.1990625 -0.17140625 8.203125 -0.1953125 C11.0196498 0.00137219 12.60949036 0.55431084 15 2 C9.20858017 3.01603857 5.5415502 2.96263236 0 1 C0 0.67 0 0.34 0 0 Z " fill="#A07FBB" transform="translate(110,160)"/>
<path d="M0 0 C0.33 0 0.66 0 1 0 C1 3.3 1 6.6 1 10 C0.34 10 -0.32 10 -1 10 C-2.46726798 6.18510326 -1.43336419 3.70988378 0 0 Z " fill="#9598A7" transform="translate(349,217)"/>
<path d="M0 0 C4.56958375 1.97322935 7.13463296 3.92236229 10 8 C6.45595664 8 5.89732095 7.39010515 3.3125 5.125 C2.68988281 4.59132812 2.06726563 4.05765625 1.42578125 3.5078125 C0 2 0 2 0 0 Z " fill="#C793DA" transform="translate(116,215)"/>
<path d="M0 0 C0 2.64 0 5.28 0 8 C-0.99 8 -1.98 8 -3 8 C-3 5.69 -3 3.38 -3 1 C-1 0 -1 0 0 0 Z " fill="#DBDDE9" transform="translate(365,208)"/>
<path d="M0 0 C0.33 0 0.66 0 1 0 C2.0070238 5.03511899 1.97387813 8.23947038 0 13 C-0.96661363 9.87819599 -0.98988909 7.47916205 -0.5625 4.25 C-0.46066406 3.45078125 -0.35882812 2.6515625 -0.25390625 1.828125 C-0.17011719 1.22484375 -0.08632813 0.6215625 0 0 Z " fill="#EAEAF7" transform="translate(547,186)"/>
<path d="M0 0 C2.97 0 5.94 0 9 0 C8.67 1.32 8.34 2.64 8 4 C7.01 4 6.02 4 5 4 C5 3.01 5 2.02 5 1 C3.35 1 1.7 1 0 1 C0 0.67 0 0.34 0 0 Z " fill="#9B9BAD" transform="translate(356,185)"/>
<path d="M0 0 C0.66 0.33 1.32 0.66 2 1 C-2.75 5.875 -2.75 5.875 -5 7 C-5 5.68 -5 4.36 -5 3 C-2.625 1.1875 -2.625 1.1875 0 0 Z " fill="#595AAC" transform="translate(215,171)"/>
<path d="M0 0 C1.12377697 3.30435084 0.89554742 5.0506862 -0.4375 8.25 C-0.72496094 8.95640625 -1.01242188 9.6628125 -1.30859375 10.390625 C-1.53675781 10.92171875 -1.76492187 11.4528125 -2 12 C-3.06106444 8.81680668 -2.96156637 7.98060942 -2.125 4.875 C-1.94195312 4.17117187 -1.75890625 3.46734375 -1.5703125 2.7421875 C-1 1 -1 1 0 0 Z " fill="#3D3880" transform="translate(54,159)"/>
<path d="M0 0 C0.33 0 0.66 0 1 0 C1.33 3.3 1.66 6.6 2 10 C1.01 10.495 1.01 10.495 0 11 C-1.28571429 3.57142857 -1.28571429 3.57142857 0 0 Z " fill="#A19FB1" transform="translate(563,203)"/>
<path d="M0 0 C2.6875 0.3125 2.6875 0.3125 5 1 C5 1.66 5 2.32 5 3 C2.36 3 -0.28 3 -3 3 C-1.8125 1.4375 -1.8125 1.4375 0 0 Z " fill="#48459E" transform="translate(87,107)"/>
<path d="M0 0 C2.64 0.33 5.28 0.66 8 1 C6.75 2.5 6.75 2.5 5 4 C3.68 4 2.36 4 1 4 C0.67 2.68 0.34 1.36 0 0 Z " fill="#896DA8" transform="translate(96,224)"/>
<path d="M0 0 C-1.65 1.65 -3.3 3.3 -5 5 C-5.33 3.35 -5.66 1.7 -6 0 C-3 -1 -3 -1 0 0 Z " fill="#B090D8" transform="translate(172,210)"/>
<path d="M0 0 C0.99 0.33 1.98 0.66 3 1 C4.1875 3.5625 4.1875 3.5625 5 6 C4.01 6.66 3.02 7.32 2 8 C1.34 5.36 0.68 2.72 0 0 Z " fill="#B08DE4" transform="translate(97,199)"/>
<path d="M0 0 C2.475 0.99 2.475 0.99 5 2 C5 2.66 5 3.32 5 4 C3.02 4 1.04 4 -1 4 C-0.67 2.68 -0.34 1.36 0 0 Z " fill="#8A8AE9" transform="translate(203,153)"/>
<path d="M0 0 C5.625 -0.25 5.625 -0.25 9 2 C9 2.66 9 3.32 9 4 C6.03 3.01 3.06 2.02 0 1 C0 0.67 0 0.34 0 0 Z " fill="#393781" transform="translate(161,113)"/>
<path d="M0 0 C0 0.66 0 1.32 0 2 C-2.91482778 2.80967438 -4.46113217 3.21845993 -7.3125 2.0625 C-7.869375 1.711875 -8.42625 1.36125 -9 1 C-5.8035914 -0.06546953 -3.34252724 -0.07427838 0 0 Z " fill="#433E8F" transform="translate(109,100)"/>
<path d="M0 0 C4.05606165 0.46800711 7.46588679 0.87953208 11 3 C8.69 3.33 6.38 3.66 4 4 C3.67 3.01 3.34 2.02 3 1 C2.01 0.67 1.02 0.34 0 0 Z " fill="#453D92" transform="translate(144,97)"/>
<path d="M0 0 C2.32590854 3.63423209 2.16265833 6.77088331 2 11 C0.4375 9.4375 0.4375 9.4375 -1 7 C-0.6875 3.25 -0.6875 3.25 0 0 Z " fill="#8B8CA3" transform="translate(567,226)"/>
<path d="M0 0 C1.42944945 2.35438733 2.08661261 3.48032433 1.625 6.25 C1.41875 6.8275 1.2125 7.405 1 8 C0.34 7.67 -0.32 7.34 -1 7 C-1.04254356 5.00045254 -1.04080783 2.99958364 -1 1 C-0.67 0.67 -0.34 0.34 0 0 Z " fill="#CBCDD7" transform="translate(565,218)"/>
<path d="M0 0 C0.33 1.32 0.66 2.64 1 4 C0.34 4 -0.32 4 -1 4 C-0.67 5.32 -0.34 6.64 0 8 C-0.99 8.495 -0.99 8.495 -2 9 C-2.66 8.34 -3.32 7.68 -4 7 C-2.68 4.69 -1.36 2.38 0 0 Z " fill="#9E9FB0" transform="translate(394,207)"/>
<path d="M0 0 C0.66 0.33 1.32 0.66 2 1 C2 1.99 2 2.98 2 4 C-0.5 5.6875 -0.5 5.6875 -3 7 C-3 3 -3 3 -1.5 1.25 C-1.005 0.8375 -0.51 0.425 0 0 Z " fill="#8580D5" transform="translate(201,181)"/>
<path d="M0 0 C1.32 0.33 2.64 0.66 4 1 C4 1.66 4 2.32 4 3 C5.32 3.66 6.64 4.32 8 5 C7.34 5.66 6.68 6.32 6 7 C6 6.34 6 5.68 6 5 C5.38125 4.731875 4.7625 4.46375 4.125 4.1875 C2 3 2 3 0 0 Z " fill="#9793CE" transform="translate(76,182)"/>
<path d="M0 0 C0.33 0.99 0.66 1.98 1 3 C0.01 3.99 -0.98 4.98 -2 6 C-2.99 5.67 -3.98 5.34 -5 5 C-3.35 3.35 -1.7 1.7 0 0 Z " fill="#423D8A" transform="translate(65,124)"/>
<path d="M0 0 C5.75 2.625 5.75 2.625 8 6 C7.236875 5.690625 6.47375 5.38125 5.6875 5.0625 C3.81210323 4.32106407 1.91315348 3.63771783 0 3 C0 2.01 0 1.02 0 0 Z " fill="#353480" transform="translate(179,109)"/>
</svg>
